<?xml version="1.0" encoding="UTF-8"?>
<svg id="Layer_2" data-name="Layer 2" xmlns="http://www.w3.org/2000/svg" viewBox="0 0 356.87 314.73">
  <defs>
    <style>
      .cls-1 {
        fill: #80bf9b;
      }

      .cls-2 {
        fill: #102644;
      }

      .cls-3 {
        stroke: #112744;
      }

      .cls-3, .cls-4 {
        fill: none;
        stroke-miterlimit: 10;
      }

      .cls-4 {
        stroke: #102644;
      }

      .cls-5 {
        fill: #fef6e6;
      }

      .cls-6 {
        fill: #fec745;
      }
    </style>
  </defs>
  <g id="guitar_girl" data-name="guitar girl">
    <rect class="cls-5" width="356.87" height="314.73" rx="20.64" ry="20.64"/>
    <circle class="cls-6" cx="92.33" cy="238.01" r="17.92"/>
    <circle class="cls-6" cx="270.29" cy="50.53" r="8.15"/>
    <path class="cls-1" d="M224.67,314.73s11.94-47.68,59.07-49.85,58.34,49,58.34,49l-117.41.84Z"/>
    <path class="cls-4" d="M201.56,61.62s-.96,7.34,1.93,9.27,5.54,5.3,4.33,6.02-4.21,1.93-4.21,1.93l1.16,5.78-2.24.96,1.2,1.44s1.98,6.5-2.32,9.27c-2.84,1.83-9.86.66-14.64-.9-2.45-.8-4.31-1.7-4.71-2.35"/>
    <line class="cls-4" x1="183.98" y1="107.13" x2="186.77" y2="95.4"/>
    <path class="cls-4" d="M196.98,84.62s4.83,1.27,5.54.96"/>
    <path class="cls-4" d="M191.81,69.93s.72,1.69,2.65,1.93,3.49-2.65,3.49-2.65"/>
    <path class="cls-4" d="M189.88,65.59s3.97-3.13,6.38-2.77"/>
    <path class="cls-2" d="M188.68,41.15s7.83-2.17,8.31,4.7-8.73,10.99-13.73,9.99c-1.2-.24-.6,8.35-.6,8.35l-6.62,5.01v2.66s-6.62-8.2-10.35-.5,6.62,10.96,6.62,10.96l-3.01,1.2s-.48,9.63-8.43,6.86-12.64-12.76-12.88-17.1-1.2.72-1.2.72c0,0-8.31,6.14-12.88,3.61s-4.7-9.15-4.7-9.15c0,0-7.95-.24-7.83-9.39s7.1-9.27,7.1-9.27c0,0-4.21-4.74-.12-8.99s11.2-2.56,11.2-2.56c0,0,2.17-6.62,8.43-6.62s12.16,4.94,10.72,10.72.49,1.44.49,1.44c0,0,7.94-5.18,15.04-5.18s14.45,2.53,14.45,2.53Z"/>
    <path class="cls-6" d="M155.77,105.58c.49-.12,1.01.05,1.34.44,2.38,2.79,12.48,13.79,21.75,11.05,6.79-2.01,7.55-5.05,7.22-6.98-.15-.9.6-1.69,1.5-1.55,4.25.65,13.45,2.86,16.92,9.98,2.87,5.89,4.13,10.78,4.67,13.61.2,1.04-.84,1.87-1.83,1.47-2.98-1.21-8.87-2.47-17.05,1.17-11.06,4.93-10.87,17.33-10.74,19.53.01.25-.04.48-.15.69-.87,1.61-5.06,8.16-16.56,9.64-7.57.97-12.18,3.83-14.72,6.07-.91.81-2.34.09-2.22-1.12l1.04-10.55s0-.07.02-.11l1.02-5.54c.28-1.52-1.82-2.22-2.51-.83-2.26,4.59-4.55,9.26-4.42,9.07.19-.28-1.12,6.46-1.68,9.33-.14.71.31,1.39,1.01,1.55l12.59,2.88c.9.21,1.33,1.24.83,2.01-1.88,2.9-5.43,9.34-4.44,15.52,1.26,7.92-30.29-1.23-33.25-2.1-.17-.05-.31-.13-.45-.24-1.5-1.19-9.68-8.73-2.54-27.28,7.83-20.35,21.91-44.31,21.91-44.31,0,0,5.35-9.65,20.74-13.41Z"/>
    <path class="cls-4" d="M149.37,192.92s14.33-2.89,18.66-2.11l21.07,3.37s8.55,2.11,8.25,0-2.23-2.95-2.23-2.95c0,0,5.3.21,5.6-.56s-1.02-3.06-3.37-3.3,6.44,1.14,6.68-.72-1.32-3.19-3.85-3.61,4.03,1.14,5-.96-4.58-3.61-4.58-3.61l-11.92-1.69,3.85-2.11s2.53.48,3.07,0-.42-3.01-1.2-3.97-7.59,0-7.59,0c0,0-5.36,5.66-7.89,6.32s-15.35.84-15.35.84"/>
    <polygon class="cls-4" points="203.55 159.29 211.97 170.28 290.12 93.11 283.73 85.63 203.55 159.29"/>
    <polygon class="cls-3" points="290.12 93.11 297.69 90.9 314.01 73.53 304.63 64.19 285.31 80.85 283.73 85.63 290.12 93.11"/>
    <line class="cls-3" x1="290.12" y1="82.35" x2="302.75" y2="71.87"/>
    <line class="cls-3" x1="294.87" y1="85.63" x2="306.5" y2="74.47"/>
    <polygon class="cls-3" points="157.65 191.49 182.06 215.54 185.38 211.79 163.03 190.83 157.65 191.49"/>
    <path class="cls-3" d="M242.9,176.15s16.14,9.94,24.39,1.31,5.63-36.21,6.75-44.65,6.75-11.26,6.75-11.26c0,0,1.69-11.39-.75-16.02s-11.55-5.92-11.55-5.92c0,0-1.77,1.11-.83,2.61s-.94,2.06-.94,2.06h-4.59s-2.16,1.73,0,2.84,6.47,2.6,6.47,2.6l1.31,6.38s-2.25-3.38-5.63-3.94-5.63,2.25-3.56,3.19,5.76,1.07,5.76,1.07l.8,2.31s-3.56.75-4.13,3,1.31,8.44,1.31,8.44c0,0-8.44,15.78-9.57,20.65"/>
    <circle class="cls-3" cx="199.75" cy="171.83" r="12.43"/>
    <path class="cls-2" d="M179.99,240.46v64.68s-40.53,12.92-40.53-31.87c0-36.63,40.53-32.81,40.53-32.81Z"/>
    <line class="cls-3" x1="242.9" y1="53.94" x2="239.84" y2="84.62"/>
    <path class="cls-3" d="M246.83,69.21s42.85-1.13,62.36-18.68"/>
    <path class="cls-3" d="M127.14,232.37s-17.18,14.45-16.9,35.4,16.9,34.68,16.9,34.68"/>
    <circle class="cls-3" cx="76.14" cy="94.83" r="16.18"/>
    <circle class="cls-3" cx="261.61" cy="220.8" r="21.77"/>
    <polyline class="cls-3" points="209.2 168 288.86 91.63 287.07 89.54 208.12 165.25 205.28 161.55 285.16 87.3"/>
    <line class="cls-3" x1="217.41" y1="164.91" x2="208.26" y2="154.96"/>
    <path class="cls-3" d="M215.62,148.2l9.06,9.53s-2.45,13.92,8.66,13.92c8.63,0,12.01,5.07,7.69,9.94-6.35,7.18-25.89,17.63-25.89,17.63,0,0-.8,6-4.5,21.57-5.35,22.51-33.02,23.26-55.34,13.88s-23.08-38.56-23.08-38.56"/>
    <line class="cls-3" x1="225.16" y1="139.43" x2="234.07" y2="148.46"/>
    <line class="cls-3" x1="235.45" y1="129.98" x2="244.01" y2="138.64"/>
    <line class="cls-3" x1="246.83" y1="119.53" x2="254.99" y2="127.79"/>
    <line class="cls-3" x1="255.87" y1="111.23" x2="263.72" y2="119.18"/>
    <line class="cls-3" x1="272.26" y1="96.17" x2="280" y2="103.09"/>
    <line class="cls-3" x1="279.09" y1="90.9" x2="285.64" y2="97.53"/>
    <polyline class="cls-3" points="288.14 78.4 285.64 75.5 286.89 73.6 290.12 76"/>
    <polyline class="cls-3" points="298.19 69.21 296.43 65.59 298.19 64.19 300.69 66.7"/>
    <polyline class="cls-3" points="298.87 88.37 302.08 91.39 302.75 89.88 301.02 87.35"/>
    <polyline class="cls-3" points="307.18 80.05 310.55 82.35 312.16 79.42 310.2 77.58"/>
  </g>
</svg>