<?xml version="1.0" encoding="utf-8"?>
<!-- Generator: Adobe Illustrator 16.0.0, SVG Export Plug-In . SVG Version: 6.00 Build 0)  -->
<!DOCTYPE svg PUBLIC "-//W3C//DTD SVG 1.1//EN" "http://www.w3.org/Graphics/SVG/1.1/DTD/svg11.dtd">
<svg version="1.1" id="Layer_1" xmlns="http://www.w3.org/2000/svg" xmlns:xlink="http://www.w3.org/1999/xlink" x="0px" y="0px"
	 width="922px" height="347px" viewBox="0 0 922 347" enable-background="new 0 0 922 347" xml:space="preserve">
<g>
	<defs>
		<path id="SVGID_1_" d="M394.381,207.448c0,18,13.933,22.625,28.786,26.375c12.487,3.125,21.951,3.25,21.951,11.876
			c0,4.874-4.995,7.625-11.961,7.625c-10.384,0-16.955-5.503-19.056-10.377l-20.645,3.268c3.023,13.625,15.384,25.859,38.912,25.859
			c21.293,0,35.096-10.5,35.096-26.375c0-16.125-11.436-21.625-29.312-26.125c-15.248-3.876-21.426-5.001-21.426-10.876
			c0-5.999,6.835-7.75,11.831-7.75c7.624,0,13.475,2.638,14.79,7.763l19.957-5.162c-2.234-10.75-11.219-21.351-35.142-21.351
			C408.577,182.198,394.381,194.573,394.381,207.448"/>
	</defs>
	<clipPath id="SVGID_2_">
		<use xlink:href="#SVGID_1_"  overflow="visible"/>
	</clipPath>
	
		<linearGradient id="SVGID_3_" gradientUnits="userSpaceOnUse" x1="-98" y1="474" x2="-97" y2="474" gradientTransform="matrix(0 89.877 89.877 0 -42171.2617 8990.1338)">
		<stop  offset="0" style="stop-color:#FFFFFF"/>
		<stop  offset="0.0121" style="stop-color:#FBE040"/>
		<stop  offset="0.1991" style="stop-color:#F9D73E"/>
		<stop  offset="0.5395" style="stop-color:#F7C13A"/>
		<stop  offset="0.9919" style="stop-color:#F39B34"/>
		<stop  offset="1" style="stop-color:#F39B34"/>
		<stop  offset="1" style="stop-color:#000000"/>
	</linearGradient>
	<rect x="393.456" y="182.198" clip-path="url(#SVGID_2_)" fill="url(#SVGID_3_)" width="74.008" height="89.876"/>
</g>
<g>
	<defs>
		<path id="SVGID_4_" d="M503.563,252.811c-2.236-1.813-3.352-4.378-3.352-7.69v-0.319c0-3.846,1.359-6.784,4.08-8.813
			c2.716-2.027,6.455-3.044,11.216-3.044c2.717,0,5.265,0.295,7.646,0.881c2.378,0.59,4.538,1.362,6.482,2.323v4.325
			c0,4.488-1.58,8.12-4.734,10.896c-3.157,2.779-7.356,4.166-12.6,4.166C508.708,255.535,505.795,254.63,503.563,252.811
			 M498.901,185.837c-4.661,1.282-9.13,2.94-13.4,4.966l5.534,18.588c3.592-1.496,7.015-2.644,10.27-3.445
			c3.252-0.801,7.015-1.202,11.288-1.202c5.535,0,9.709,1.338,12.527,4.006c2.815,2.672,4.223,6.569,4.223,11.698v1.439
			c-2.817-1.065-5.706-1.922-8.667-2.563c-2.962-0.64-6.434-0.961-10.414-0.961c-4.661,0-8.91,0.562-12.745,1.683
			c-3.838,1.122-7.137,2.805-9.904,5.047c-2.768,2.244-4.931,5.075-6.482,8.493c-1.555,3.42-2.331,7.479-2.331,12.177v0.32
			c0,4.273,0.705,8.038,2.112,11.296c1.407,3.26,3.325,6.008,5.754,8.252c2.427,2.243,5.266,3.925,8.522,5.046
			c3.25,1.123,6.722,1.684,10.413,1.684c5.438,0,10.052-0.989,13.839-2.965c3.786-1.976,7.039-4.619,9.759-7.931v11.721
			l21.412-3.896v-48.361c0-11.642-2.768-20.72-8.304-27.237c-5.535-6.516-14.371-9.774-26.51-9.774
			C509.192,183.915,503.563,184.555,498.901,185.837"/>
	</defs>
	<clipPath id="SVGID_5_">
		<use xlink:href="#SVGID_4_"  overflow="visible"/>
	</clipPath>
	
		<linearGradient id="SVGID_6_" gradientUnits="userSpaceOnUse" x1="-98.0005" y1="474" x2="-97.0005" y2="474" gradientTransform="matrix(0 89.27 89.27 0 -41799.293 8932.3975)">
		<stop  offset="0" style="stop-color:#FFFFFF"/>
		<stop  offset="0.0121" style="stop-color:#FBE040"/>
		<stop  offset="0.1991" style="stop-color:#F9D73E"/>
		<stop  offset="0.5395" style="stop-color:#F7C13A"/>
		<stop  offset="0.9919" style="stop-color:#F39B34"/>
		<stop  offset="1" style="stop-color:#F39B34"/>
		<stop  offset="1" style="stop-color:#000000"/>
	</linearGradient>
	<rect x="478.799" y="183.915" clip-path="url(#SVGID_5_)" fill="url(#SVGID_6_)" width="71.812" height="89.27"/>
</g>
<g>
	<defs>
		<path id="SVGID_7_" d="M640.59,186.743c-4.177,2.313-7.964,5.731-11.361,10.247c-2.039-4.41-4.93-7.799-8.668-10.166
			c-3.738-2.366-8.181-3.551-13.326-3.551c-2.817,0-5.367,0.378-7.647,1.131c-2.284,0.755-4.347,1.776-6.192,3.066
			c-1.845,1.293-3.52,2.77-5.023,4.438c-1.507,1.666-2.891,3.416-4.152,5.245v-12.278l-22.14,4.854v81.026h22.14v-47.79
			c0-5.753,1.188-10.097,3.568-13.024c2.38-2.932,5.656-4.397,9.833-4.397c4.174,0,7.379,1.466,9.614,4.397
			c2.232,2.928,3.35,7.271,3.35,13.024v47.79h22.14v-47.79c0-5.753,1.188-10.097,3.569-13.024c2.379-2.932,5.655-4.397,9.832-4.397
			c4.175,0,7.379,1.466,9.614,4.397c2.23,2.928,3.349,7.271,3.349,13.024v47.79h22.141v-55.918c0-10.36-2.33-18.211-6.991-23.555
			c-4.661-5.34-11.12-8.011-19.373-8.011C649.521,183.273,644.765,184.43,640.59,186.743"/>
	</defs>
	<clipPath id="SVGID_8_">
		<use xlink:href="#SVGID_7_"  overflow="visible"/>
	</clipPath>
	
		<linearGradient id="SVGID_9_" gradientUnits="userSpaceOnUse" x1="-98" y1="474" x2="-97" y2="474" gradientTransform="matrix(0 87.483 87.483 0 -40845.3125 8756.583)">
		<stop  offset="0" style="stop-color:#FFFFFF"/>
		<stop  offset="0.0121" style="stop-color:#FBE040"/>
		<stop  offset="0.1991" style="stop-color:#F9D73E"/>
		<stop  offset="0.5395" style="stop-color:#F7C13A"/>
		<stop  offset="0.9919" style="stop-color:#F39B34"/>
		<stop  offset="1" style="stop-color:#F39B34"/>
		<stop  offset="1" style="stop-color:#000000"/>
	</linearGradient>
	<rect x="562.079" y="183.273" clip-path="url(#SVGID_8_)" fill="url(#SVGID_9_)" width="119.149" height="87.483"/>
</g>
<g>
	<defs>
		<path id="SVGID_10_" d="M726.127,250.157c-2.283-1.129-4.275-2.74-5.972-4.839c-1.701-2.098-3.059-4.624-4.079-7.581
			c-1.02-2.956-1.528-6.211-1.528-9.761v-0.32c0-3.551,0.509-6.804,1.528-9.758c1.021-2.958,2.378-5.483,4.079-7.582
			c1.696-2.098,3.688-3.711,5.972-4.839c2.28-1.131,4.734-1.695,7.355-1.695s5.073,0.564,7.356,1.695
			c2.279,1.128,4.297,2.741,6.044,4.839c1.749,2.099,3.132,4.624,4.151,7.582c1.021,2.954,1.53,6.207,1.53,9.758v0.32
			c0,3.657-0.51,6.938-1.53,9.842c-1.02,2.904-2.402,5.402-4.151,7.5c-1.747,2.099-3.765,3.71-6.044,4.839
			c-2.283,1.129-4.735,1.691-7.356,1.691S728.407,251.286,726.127,250.157 M724.67,187.169c-3.837,2.598-7.113,5.911-9.831,9.937
			v-12.229h-22.141V298.82l22.141-6.498v-32.681c2.621,3.392,5.849,6.358,9.687,8.902c3.835,2.544,8.714,3.815,14.638,3.815
			c4.661,0,9.128-0.962,13.401-2.885c4.271-1.922,8.033-4.779,11.289-8.572c3.25-3.789,5.873-8.437,7.865-13.939
			c1.989-5.5,2.985-11.828,2.985-18.986v-0.32c0-7.155-0.996-13.483-2.985-18.987c-1.992-5.5-4.639-10.146-7.938-13.94
			c-3.302-3.789-7.089-6.647-11.361-8.57c-4.275-1.924-8.693-2.885-13.256-2.885C733.336,183.273,728.505,184.574,724.67,187.169"/>
	</defs>
	<clipPath id="SVGID_11_">
		<use xlink:href="#SVGID_10_"  overflow="visible"/>
	</clipPath>
	
		<linearGradient id="SVGID_12_" gradientUnits="userSpaceOnUse" x1="-98" y1="474" x2="-97" y2="474" gradientTransform="matrix(0 115.546 115.546 0 -54035.1172 11506.7578)">
		<stop  offset="0" style="stop-color:#FFFFFF"/>
		<stop  offset="0.0121" style="stop-color:#FBE040"/>
		<stop  offset="0.1991" style="stop-color:#F9D73E"/>
		<stop  offset="0.5395" style="stop-color:#F7C13A"/>
		<stop  offset="0.9919" style="stop-color:#F39B34"/>
		<stop  offset="1" style="stop-color:#F39B34"/>
		<stop  offset="1" style="stop-color:#000000"/>
	</linearGradient>
	<rect x="692.698" y="183.273" clip-path="url(#SVGID_11_)" fill="url(#SVGID_12_)" width="82.006" height="115.547"/>
</g>
<g>
	<defs>
		<path id="SVGID_13_" d="M817.49,188.081c-3.884,3.522-6.943,8.226-9.176,14.098v-17.303l-22.141,4.854v81.026h22.141v-31.724
			c0-10.36,2.112-18,6.336-22.914c4.225-4.911,10.025-7.37,17.406-7.37h1.164v-25.476c-0.55-0.026-1.091-0.04-1.622-0.04
			C825.754,183.233,821.049,184.849,817.49,188.081"/>
	</defs>
	<clipPath id="SVGID_14_">
		<use xlink:href="#SVGID_13_"  overflow="visible"/>
	</clipPath>
	
		<linearGradient id="SVGID_15_" gradientUnits="userSpaceOnUse" x1="-98.0005" y1="474" x2="-97.0005" y2="474" gradientTransform="matrix(0 87.523 87.523 0 -40676.2148 8760.5039)">
		<stop  offset="0" style="stop-color:#FFFFFF"/>
		<stop  offset="0.0121" style="stop-color:#FBE040"/>
		<stop  offset="0.1991" style="stop-color:#F9D73E"/>
		<stop  offset="0.5395" style="stop-color:#F7C13A"/>
		<stop  offset="0.9919" style="stop-color:#F39B34"/>
		<stop  offset="1" style="stop-color:#F39B34"/>
		<stop  offset="1" style="stop-color:#000000"/>
	</linearGradient>
	<rect x="786.174" y="183.233" clip-path="url(#SVGID_14_)" fill="url(#SVGID_15_)" width="47.047" height="87.523"/>
</g>
<g>
	<defs>
		<path id="SVGID_16_" d="M869.451,252.811c-2.232-1.813-3.348-4.378-3.348-7.69v-0.319c0-3.846,1.358-6.784,4.077-8.813
			c2.719-2.027,6.457-3.044,11.216-3.044c2.718,0,5.267,0.295,7.648,0.881c2.377,0.59,4.537,1.362,6.481,2.323v4.325
			c0,4.488-1.579,8.12-4.734,10.896c-3.157,2.779-7.354,4.166-12.6,4.166C874.599,255.535,871.685,254.63,869.451,252.811
			 M864.793,185.837c-4.663,1.282-9.131,2.94-13.402,4.966l5.535,18.588c3.591-1.496,7.016-2.644,10.27-3.445
			c3.253-0.801,7.016-1.202,11.289-1.202c5.534,0,9.709,1.338,12.525,4.006c2.816,2.672,4.226,6.569,4.226,11.698v1.439
			c-2.817-1.065-5.706-1.922-8.667-2.563c-2.963-0.64-6.435-0.961-10.415-0.961c-4.661,0-8.91,0.562-12.745,1.683
			c-3.837,1.122-7.137,2.805-9.904,5.047c-2.768,2.244-4.931,5.075-6.48,8.493c-1.557,3.42-2.332,7.479-2.332,12.177v0.32
			c0,4.273,0.702,8.038,2.111,11.296c1.408,3.26,3.325,6.008,5.754,8.252c2.426,2.243,5.267,3.925,8.521,5.046
			c3.252,1.123,6.725,1.684,10.415,1.684c5.438,0,10.052-0.989,13.838-2.965s7.039-4.619,9.76-7.931v11.721l21.412-4.856v-47.401
			c0-11.642-2.769-20.72-8.304-27.237c-5.536-6.516-14.372-9.774-26.511-9.774C875.084,183.915,869.451,184.555,864.793,185.837"/>
	</defs>
	<clipPath id="SVGID_17_">
		<use xlink:href="#SVGID_16_"  overflow="visible"/>
	</clipPath>
	
		<linearGradient id="SVGID_18_" gradientUnits="userSpaceOnUse" x1="-98.0005" y1="473.999" x2="-97.0005" y2="473.999" gradientTransform="matrix(0 89.27 89.27 0 -41433.3555 8932.3975)">
		<stop  offset="0" style="stop-color:#FFFFFF"/>
		<stop  offset="0.0121" style="stop-color:#FBE040"/>
		<stop  offset="0.1991" style="stop-color:#F9D73E"/>
		<stop  offset="0.5395" style="stop-color:#F7C13A"/>
		<stop  offset="0.9919" style="stop-color:#F39B34"/>
		<stop  offset="1" style="stop-color:#F39B34"/>
		<stop  offset="1" style="stop-color:#000000"/>
	</linearGradient>
	<rect x="844.691" y="183.915" clip-path="url(#SVGID_17_)" fill="url(#SVGID_18_)" width="71.811" height="89.27"/>
</g>
<path d="M911.671,330.532c0-0.932-0.156-1.793-0.466-2.583c-0.311-0.791-0.74-1.469-1.29-2.036
	c-0.552-0.567-1.216-1.008-1.996-1.321c-0.779-0.314-1.641-0.471-2.58-0.471h-3.57v12.823h3.57c0.939,0,1.801-0.152,2.58-0.457
	c0.78-0.303,1.444-0.738,1.996-1.307c0.55-0.566,0.979-1.234,1.29-2.005c0.31-0.77,0.466-1.631,0.466-2.583V330.532z
	 M915.69,334.726c-0.541,1.297-1.305,2.421-2.295,3.373c-0.991,0.953-2.171,1.702-3.541,2.249c-1.371,0.547-2.876,0.82-4.516,0.82
	h-8.192v-21.271h8.192c1.64,0,3.145,0.269,4.516,0.805c1.37,0.538,2.55,1.281,3.541,2.233c0.99,0.953,1.754,2.072,2.295,3.358
	c0.54,1.287,0.812,2.679,0.812,4.179v0.061C916.502,332.031,916.23,333.43,915.69,334.726 M875.573,341.168l-10.172-13.522v13.522
	h-4.56v-21.271h4.261l9.841,13.098v-13.098h4.562v21.271H875.573z M842.885,336.124c-0.432,1.194-1.046,2.192-1.846,2.992
	c-0.802,0.801-1.771,1.398-2.911,1.793c-1.141,0.396-2.41,0.594-3.811,0.594c-2.821,0-5.042-0.792-6.662-2.372
	s-2.429-3.939-2.429-7.079v-12.155h4.62v12.034c0,1.742,0.399,3.054,1.2,3.935c0.8,0.882,1.911,1.322,3.331,1.322
	s2.529-0.427,3.33-1.276c0.8-0.852,1.2-2.127,1.2-3.829v-12.186h4.62v12.003C843.528,333.521,843.313,334.929,842.885,336.124
	 M797.893,324.121v4.588h10.021v4.224h-10.021v8.235h-4.622v-21.271h15.993v4.225H797.893z M749.135,324.212v16.956h-4.621v-16.956
	h-6.391v-4.315h17.402v4.315H749.135z M718.049,341.168l-10.171-13.522v13.522h-4.562v-21.271h4.261l9.842,13.098v-13.098h4.561
	v21.271H718.049z M670.61,341.168v-21.271h15.813v4.163h-11.251v4.315h9.9v4.163h-9.9v4.466h11.4v4.164H670.61z M648.408,341.168
	V327.28l-5.912,9.086h-0.118l-5.853-8.994v13.796h-4.56v-21.271h4.979l5.521,8.994l5.521-8.994h4.981v21.271H648.408z
	 M611.263,327.342c0-1.054-0.336-1.854-1.006-2.401c-0.67-0.547-1.586-0.819-2.746-0.819h-3.571v6.502h3.662
	c1.16,0,2.059-0.309,2.7-0.927c0.639-0.618,0.961-1.383,0.961-2.294V327.342z M615.282,330.563c-0.439,0.934-1.046,1.712-1.814,2.34
	c-0.771,0.628-1.671,1.1-2.701,1.413c-1.03,0.314-2.135,0.471-3.316,0.471h-3.511v6.382h-4.62v-21.271h8.581
	c1.26,0,2.386,0.178,3.376,0.531c0.991,0.354,1.83,0.856,2.521,1.504c0.689,0.649,1.219,1.424,1.59,2.325
	c0.37,0.901,0.554,1.899,0.554,2.993v0.061C615.941,328.547,615.723,329.631,615.282,330.563 M577.776,330.532
	c0-0.911-0.155-1.772-0.464-2.583c-0.311-0.81-0.75-1.52-1.321-2.127c-0.569-0.608-1.245-1.089-2.024-1.444
	c-0.78-0.354-1.631-0.531-2.551-0.531c-0.94,0-1.797,0.173-2.565,0.517c-0.771,0.345-1.431,0.82-1.981,1.429
	c-0.551,0.606-0.979,1.312-1.289,2.111c-0.311,0.802-0.466,1.656-0.466,2.568v0.061c0,0.911,0.155,1.772,0.466,2.583
	c0.31,0.811,0.75,1.519,1.319,2.127c0.571,0.608,1.24,1.089,2.011,1.443c0.77,0.354,1.624,0.532,2.565,0.532
	c0.921,0,1.771-0.173,2.55-0.517c0.781-0.345,1.445-0.82,1.996-1.429c0.549-0.608,0.98-1.312,1.291-2.112
	c0.309-0.8,0.464-1.656,0.464-2.567V330.532z M581.768,334.801c-0.56,1.328-1.335,2.492-2.326,3.495
	c-0.99,1.003-2.17,1.793-3.541,2.37c-1.37,0.578-2.865,0.866-4.484,0.866c-1.62,0-3.111-0.288-4.473-0.866
	c-1.359-0.577-2.535-1.356-3.524-2.34c-0.989-0.982-1.761-2.138-2.311-3.464s-0.825-2.75-0.825-4.27v-0.061
	c0-1.52,0.28-2.942,0.841-4.271c0.56-1.326,1.335-2.491,2.325-3.494c0.989-1.003,2.17-1.793,3.54-2.37
	c1.369-0.577,2.865-0.866,4.486-0.866c1.62,0,3.11,0.289,4.47,0.866c1.361,0.577,2.536,1.357,3.526,2.341
	c0.99,0.982,1.759,2.138,2.31,3.464s0.826,2.75,0.826,4.27v0.061C582.607,332.052,582.326,333.475,581.768,334.801 M530.039,341.168
	v-21.271h4.62v17.048h10.474v4.224H530.039z M497.335,341.168v-21.271h15.812v4.163h-11.252v4.315h9.902v4.163h-9.902v4.466h11.402
	v4.164H497.335z M473,341.319h-4.08l-8.492-21.423h5.101l5.491,14.98l5.491-14.98h4.979L473,341.319z M429.522,341.168v-21.271
	h15.813v4.163h-11.252v4.315h9.901v4.163h-9.901v4.466h11.401v4.164H429.522z M407.979,330.532c0-0.932-0.154-1.793-0.464-2.583
	c-0.311-0.791-0.742-1.469-1.29-2.036c-0.551-0.567-1.216-1.008-1.996-1.321c-0.781-0.314-1.64-0.471-2.581-0.471h-3.57v12.823h3.57
	c0.941,0,1.8-0.152,2.581-0.457c0.78-0.303,1.445-0.738,1.996-1.307c0.548-0.566,0.979-1.234,1.29-2.005
	c0.31-0.77,0.464-1.631,0.464-2.583V330.532z M412,334.726c-0.539,1.297-1.306,2.421-2.295,3.373
	c-0.99,0.953-2.171,1.702-3.54,2.249c-1.371,0.547-2.877,0.82-4.517,0.82h-8.19v-21.271h8.19c1.64,0,3.146,0.269,4.517,0.805
	c1.369,0.538,2.55,1.281,3.54,2.233c0.989,0.953,1.756,2.072,2.295,3.358c0.54,1.287,0.811,2.679,0.811,4.179v0.061
	C412.811,332.031,412.54,333.43,412,334.726"/>
<path fill="#25408F" d="M338.222,175c0-39.758-13.953-76.245-37.202-104.879v17.662c16.822,24.896,26.645,54.909,26.645,87.217
	c0,32.308-9.823,62.321-26.645,87.217v17.662C324.27,251.245,338.222,214.758,338.222,175"/>
<path fill="#25408F" d="M267.36,298.145v13.127c12.617-8.875,23.955-19.438,33.66-31.393v-17.662
	C291.769,275.908,280.374,288.019,267.36,298.145 M301.02,87.783V70.121c-9.705-11.954-21.043-22.518-33.66-31.393v13.127
	C280.374,61.981,291.769,74.092,301.02,87.783"/>
<path fill="#2FA9E0" d="M244.77,312.799v11.86c7.908-3.869,15.446-8.364,22.589-13.388v-13.127
	C260.287,303.647,252.74,308.563,244.77,312.799 M267.359,51.855V38.729c-7.143-5.023-14.681-9.519-22.589-13.388v11.861
	C252.74,41.437,260.287,46.353,267.359,51.855"/>
<path fill="#FECA38" d="M211.11,325.94v10.856c11.756-2.854,23.027-6.937,33.66-12.138v-11.86
	C234.209,318.411,222.937,322.859,211.11,325.94 M244.77,37.201v-11.86c-10.633-5.202-21.904-9.284-33.66-12.139v10.857
	C222.937,27.139,234.209,31.588,244.77,37.201"/>
<path fill="#F29320" d="M177.448,330.831v10.556c11.559-0.394,22.816-1.956,33.661-4.59V325.94
	C200.302,328.755,189.033,330.408,177.448,330.831 M211.109,24.06V13.203c-10.845-2.633-22.102-4.196-33.661-4.589v10.556
	C189.033,19.591,200.302,21.246,211.109,24.06"/>
<path fill="#C42126" d="M143.787,328.438v10.722c9.077,1.531,18.39,2.373,27.903,2.373c1.931,0,3.843-0.08,5.758-0.146V330.83
	c-1.914,0.068-3.827,0.146-5.758,0.146C162.16,330.976,152.844,330.074,143.787,328.438 M177.448,19.17V8.613
	c-1.915-0.065-3.827-0.145-5.758-0.145c-9.513,0-18.826,0.841-27.903,2.373v10.722c9.057-1.637,18.373-2.539,27.903-2.539
	C173.621,19.024,175.534,19.101,177.448,19.17"/>
<path fill="#EF3824" d="M110.125,318.334v11.396c10.719,4.271,21.979,7.458,33.661,9.43v-10.722
	C132.059,326.318,120.783,322.916,110.125,318.334 M143.787,21.563V10.84c-11.682,1.971-22.942,5.16-33.661,9.43v11.396
	C120.783,27.083,132.059,23.682,143.787,21.563"/>
<path fill="#003912" d="M87.536,306.295v12.393c7.202,4.227,14.748,7.92,22.59,11.041v-11.396
	C102.231,314.938,94.692,310.892,87.536,306.295 M110.125,31.667V20.271c-7.842,3.122-15.388,6.814-22.59,11.042v12.392
	C94.692,39.108,102.231,35.062,110.125,31.667"/>
<path fill="#41AD49" d="M53.875,277.151v15.543c10.026,10.037,21.348,18.767,33.661,25.993v-12.393
	C74.963,298.219,63.632,288.394,53.875,277.151 M87.537,43.705V31.312c-12.313,7.226-23.635,15.956-33.661,25.993v15.544
	C63.632,61.606,74.963,51.781,87.537,43.705"/>
<path fill="#41AD49" d="M53.875,72.849V57.305C23.773,87.437,5.157,129.043,5.157,175c0,45.957,18.617,87.563,48.719,117.695
	v-15.543C30.123,249.781,15.714,214.084,15.714,175C15.714,135.916,30.123,100.219,53.875,72.849"/>
<path fill="#41AD49" d="M59.449,191.883c-1.61,0-2.917-1.326-2.917-2.963v-10.503c0-1.636,1.307-2.963,2.917-2.963
	c1.611,0,2.917,1.328,2.917,2.963v10.503C62.366,190.557,61.06,191.883,59.449,191.883"/>
<path fill="#41AD49" d="M70.673,208.61c-1.611,0-2.917-1.327-2.917-2.963v-20.065c0-1.636,1.306-2.963,2.917-2.963
	s2.917,1.327,2.917,2.963v20.065C73.59,207.283,72.284,208.61,70.673,208.61"/>
<path fill="#41AD49" d="M81.897,223.799c-1.61,0-2.917-1.327-2.917-2.963v-30.553c0-1.637,1.307-2.963,2.917-2.963
	c1.611,0,2.917,1.326,2.917,2.963v30.553C84.814,222.472,83.508,223.799,81.897,223.799"/>
<path fill="#41AD49" d="M81.897,255.715c-1.61,0-2.917-1.327-2.917-2.964v-5.497c0-1.636,1.307-2.963,2.917-2.963
	c1.611,0,2.917,1.327,2.917,2.963v5.497C84.814,254.388,83.508,255.715,81.897,255.715"/>
<path fill="#193902" d="M93.122,274.172c-1.611,0-2.917-1.327-2.917-2.963v-80.927c0-1.636,1.306-2.963,2.917-2.963
	c1.61,0,2.917,1.327,2.917,2.963v80.927C96.039,272.845,94.731,274.172,93.122,274.172"/>
<path fill="#193902" d="M104.345,279.171c-1.61,0-2.917-1.327-2.917-2.964v-91.935c0-1.637,1.307-2.964,2.917-2.964
	c1.611,0,2.917,1.327,2.917,2.964v91.935C107.262,277.844,105.956,279.171,104.345,279.171"/>
<path fill="#EF3824" d="M115.57,274.172c-1.611,0-2.917-1.327-2.917-2.963V130.823c0-1.636,1.306-2.963,2.917-2.963
	c1.61,0,2.917,1.327,2.917,2.963v140.386C118.487,272.845,117.18,274.172,115.57,274.172"/>
<path fill="#EF3824" d="M126.793,271.48c-1.611,0-2.917-1.327-2.917-2.964V159.855c0-1.638,1.306-2.963,2.917-2.963
	c1.611,0,2.917,1.325,2.917,2.963v108.661C129.71,270.153,128.405,271.48,126.793,271.48"/>
<path fill="#EF3824" d="M138.018,266.865c-1.611,0-2.917-1.326-2.917-2.963V150.241c0-1.636,1.306-2.962,2.917-2.962
	c1.61,0,2.917,1.326,2.917,2.962v113.661C140.935,265.539,139.628,266.865,138.018,266.865"/>
<path fill="#C42126" d="M149.242,266.865c-1.611,0-2.917-1.326-2.917-2.963V136.783c0-1.637,1.306-2.963,2.917-2.963
	c1.611,0,2.917,1.326,2.917,2.963v127.119C152.159,265.539,150.853,266.865,149.242,266.865"/>
<path fill="#C42126" d="M160.465,268.98c-1.61,0-2.917-1.327-2.917-2.963V142.936c0-1.636,1.307-2.963,2.917-2.963
	c1.611,0,2.917,1.327,2.917,2.963v123.082C163.382,267.653,162.076,268.98,160.465,268.98"/>
<path fill="#C42126" d="M171.69,268.98c-1.611,0-2.917-1.327-2.917-2.963V144.474c0-1.636,1.306-2.963,2.917-2.963
	s2.917,1.327,2.917,2.963v121.544C174.607,267.653,173.301,268.98,171.69,268.98"/>
<path fill="#F29320" d="M182.914,268.98c-1.61,0-2.917-1.327-2.917-2.963V134.86c0-1.636,1.307-2.963,2.917-2.963
	c1.611,0,2.917,1.327,2.917,2.963v131.157C185.831,267.653,184.525,268.98,182.914,268.98"/>
<path fill="#F29320" d="M194.138,259.175c-1.611,0-2.917-1.326-2.917-2.963V121.403c0-1.637,1.306-2.964,2.917-2.964
	c1.611,0,2.917,1.327,2.917,2.964v134.809C197.055,257.849,195.75,259.175,194.138,259.175"/>
<path fill="#2FA9E0" d="M250.258,205.56c-1.61,0-2.917-1.327-2.917-2.963V93.717c0-1.636,1.307-2.963,2.917-2.963
	c1.611,0,2.917,1.327,2.917,2.963v108.88C253.175,204.232,251.869,205.56,250.258,205.56"/>
<path fill="#2FA9E0" d="M261.483,139.972c-1.611,0-2.917-1.327-2.917-2.963v-36.564c0-1.636,1.306-2.963,2.917-2.963
	c1.61,0,2.917,1.327,2.917,2.963v36.564C264.4,138.645,263.093,139.972,261.483,139.972"/>
<path fill="#2FA9E0" d="M261.483,191.883c-1.611,0-2.917-1.326-2.917-2.963v-22.888c0-1.635,1.306-2.962,2.917-2.962
	c1.61,0,2.917,1.327,2.917,2.962v22.888C264.4,190.557,263.093,191.883,261.483,191.883"/>
<path fill="#25408F" d="M272.707,139.972c-1.611,0-2.917-1.327-2.917-2.963v-19.453c0-1.636,1.306-2.963,2.917-2.963
	s2.917,1.327,2.917,2.963v19.453C275.624,138.645,274.317,139.972,272.707,139.972"/>
<path fill="#25408F" d="M272.707,184.289c-1.611,0-2.917-1.327-2.917-2.963v-15.293c0-1.637,1.306-2.964,2.917-2.964
	s2.917,1.327,2.917,2.964v15.293C275.624,182.962,274.317,184.289,272.707,184.289"/>
<path fill="#25408F" d="M283.931,177.054c-1.611,0-2.917-1.327-2.917-2.963v-15.293c0-1.637,1.306-2.964,2.917-2.964
	c1.61,0,2.917,1.327,2.917,2.964v15.293C286.848,175.727,285.541,177.054,283.931,177.054"/>
<path fill="#F29320" d="M205.362,191.883c-1.61,0-2.917-1.326-2.917-2.963v-79.631c0-1.635,1.307-2.963,2.917-2.963
	c1.611,0,2.917,1.328,2.917,2.963v79.631C208.279,190.557,206.973,191.883,205.362,191.883"/>
<path fill="#F29320" d="M205.362,252.927c-1.61,0-2.917-1.327-2.917-2.963v-36.853c0-1.637,1.307-2.963,2.917-2.963
	c1.611,0,2.917,1.326,2.917,2.963v36.853C208.279,251.6,206.973,252.927,205.362,252.927"/>
<path fill="#FECA38" d="M216.586,184.289c-1.611,0-2.917-1.327-2.917-2.963v-79.631c0-1.636,1.306-2.963,2.917-2.963
	s2.917,1.327,2.917,2.963v79.631C219.503,182.962,218.197,184.289,216.586,184.289"/>
<path fill="#FECA38" d="M216.586,246.87c-1.611,0-2.917-1.327-2.917-2.963v-26.759c0-1.636,1.306-2.963,2.917-2.963
	s2.917,1.327,2.917,2.963v26.759C219.503,245.543,218.197,246.87,216.586,246.87"/>
<path fill="#FECA38" d="M227.81,184.289c-1.61,0-2.917-1.327-2.917-2.963V96.408c0-1.636,1.307-2.963,2.917-2.963
	c1.611,0,2.917,1.327,2.917,2.963v84.918C230.727,182.962,229.421,184.289,227.81,184.289"/>
<path fill="#FECA38" d="M227.81,238.244c-1.61,0-2.917-1.327-2.917-2.963v-26.76c0-1.636,1.307-2.963,2.917-2.963
	c1.611,0,2.917,1.327,2.917,2.963v26.76C230.727,236.917,229.421,238.244,227.81,238.244"/>
<path fill="#FECA38" d="M239.035,190.729c-1.611,0-2.917-1.327-2.917-2.963v-96.55c0-1.636,1.306-2.963,2.917-2.963
	c1.61,0,2.917,1.327,2.917,2.963v96.55C241.952,189.402,240.645,190.729,239.035,190.729"/>
<path fill="#FECA38" d="M239.035,228.99c-1.611,0-2.917-1.327-2.917-2.963v-26.759c0-1.637,1.306-2.964,2.917-2.964
	c1.61,0,2.917,1.327,2.917,2.964v26.759C241.952,227.663,240.645,228.99,239.035,228.99"/>
<path fill="#25408F" d="M297.744,171.244c-2.3,0-4.164,1.682-4.164,3.756c0,2.074,1.864,3.756,4.164,3.756h35.113
	c2.3,0,4.163-1.682,4.163-3.756c0-2.074-1.863-3.756-4.163-3.756H297.744z"/>
<path fill="#41AD49" d="M12.579,171.244c-2.404,0-4.353,1.682-4.353,3.756c0,2.074,1.949,3.756,4.353,3.756h34.552
	c2.404,0,4.353-1.682,4.353-3.756c0-2.074-1.949-3.756-4.353-3.756H12.579z"/>
<path fill="#25408F" d="M294.371,183.601c-1.611,0-2.917-1.327-2.917-2.963v-11.042c0-1.636,1.306-2.963,2.917-2.963
	c1.61,0,2.917,1.327,2.917,2.963v11.042C297.288,182.273,295.98,183.601,294.371,183.601"/>
<path fill="#41AD49" d="M48.567,183.601c-1.61,0-2.917-1.327-2.917-2.963v-11.042c0-1.636,1.307-2.963,2.917-2.963
	c1.611,0,2.917,1.327,2.917,2.963v11.042C51.484,182.273,50.178,183.601,48.567,183.601"/>
</svg>
