<?xml version="1.0" encoding="utf-8"?>
<svg version="1.1" viewBox="0 0 200 200" xmlns="http://www.w3.org/2000/svg">
  <circle cx="100" cy="100" r="95" fill="none" stroke="#FEC838" stroke-width="8"/>
  <g transform="translate(100, 100)">
    <!-- Waveform bars -->
    <rect x="-70" y="-25" width="6" height="15" fill="#FEC838" rx="3"/>
    <rect x="-58" y="-30" width="6" height="20" fill="#FEC838" rx="3"/>
    <rect x="-46" y="-28" width="6" height="18" fill="#FEC838" rx="3"/>
    <rect x="-34" y="-35" width="6" height="25" fill="#FEC838" rx="3"/>
    <rect x="-22" y="-40" width="6" height="30" fill="#FEC838" rx="3"/>
    <rect x="-10" y="-38" width="6" height="28" fill="#FEC838" rx="3"/>
    <rect x="2" y="-45" width="6" height="35" fill="#FEC838" rx="3"/>
    <rect x="14" y="-42" width="6" height="32" fill="#FEC838" rx="3"/>
    <rect x="26" y="-48" width="6" height="38" fill="#FEC838" rx="3"/>
    <rect x="38" y="-35" width="6" height="25" fill="#FEC838" rx="3"/>
    <rect x="50" y="-28" width="6" height="18" fill="#FEC838" rx="3"/>
    <rect x="62" y="-30" width="6" height="20" fill="#FEC838" rx="3"/>
    <rect x="74" y="-25" width="6" height="15" fill="#FEC838" rx="3"/>
    
    <!-- Center line -->
    <line x1="-80" y1="0" x2="80" y2="0" stroke="#FEC838" stroke-width="4" stroke-linecap="round"/>
  </g>
</svg>