<?xml version="1.0" encoding="UTF-8"?>
<svg id="Layer_2" data-name="Layer 2" xmlns="http://www.w3.org/2000/svg" viewBox="0 0 334.06 334.06">
  <defs>
    <style>
      .cls-1 {
        fill: #fec745;
        stroke: #fec745;
        stroke-miterlimit: 10;
      }
    </style>
  </defs>
  <g id="Layer_1-2" data-name="Layer 1">
    <path class="cls-1" d="M333.56,167.03c0-39.76-13.95-76.25-37.2-104.88v17.66c16.82,24.9,26.64,54.91,26.64,87.22s-9.82,62.32-26.64,87.22v17.66c23.25-28.63,37.2-65.12,37.2-104.88"/>
    <path class="cls-1" d="M262.7,290.18v13.13c12.62-8.88,23.95-19.44,33.66-31.39v-17.66c-9.25,13.69-20.65,25.8-33.66,35.93M296.36,79.81v-17.66c-9.7-11.95-21.04-22.52-33.66-31.39v13.13c13.01,10.13,24.41,22.24,33.66,35.93"/>
    <path class="cls-1" d="M240.11,304.83v11.86c7.91-3.87,15.45-8.36,22.59-13.39v-13.13c-7.07,5.5-14.62,10.42-22.59,14.66M262.7,43.89v-13.13c-7.14-5.02-14.68-9.52-22.59-13.39v11.86c7.97,4.24,15.52,9.15,22.59,14.65"/>
    <path class="cls-1" d="M206.45,317.97v10.86c11.76-2.85,23.03-6.94,33.66-12.14v-11.86c-10.56,5.61-21.83,10.06-33.66,13.14M240.11,29.23v-11.86c-10.63-5.2-21.9-9.28-33.66-12.14v10.86c11.83,3.08,23.1,7.53,33.66,13.14"/>
    <path class="cls-1" d="M172.79,322.86v10.56c11.56-.39,22.82-1.96,33.66-4.59v-10.86c-10.81,2.82-22.08,4.47-33.66,4.89M206.45,16.09V5.24c-10.85-2.63-22.1-4.2-33.66-4.59v10.56c11.59.42,22.85,2.08,33.66,4.89"/>
    <path class="cls-1" d="M139.13,320.47v10.72c9.08,1.53,18.39,2.37,27.9,2.37,1.93,0,3.84-.08,5.76-.15v-10.56c-1.91.07-3.83.15-5.76.15-9.53,0-18.85-.9-27.9-2.54M172.79,11.2V.65c-1.91-.06-3.83-.15-5.76-.15-9.51,0-18.83.84-27.9,2.37v10.72c9.06-1.64,18.37-2.54,27.9-2.54,1.93,0,3.84.08,5.76.15"/>
    <path class="cls-1" d="M105.47,310.37v11.4c10.72,4.27,21.98,7.46,33.66,9.43v-10.72c-11.73-2.12-23-5.52-33.66-10.1M139.13,13.6V2.87c-11.68,1.97-22.94,5.16-33.66,9.43v11.4c10.66-4.58,21.93-7.98,33.66-10.1"/>
    <path class="cls-1" d="M82.88,298.33v12.39c7.2,4.23,14.75,7.92,22.59,11.04v-11.4c-7.9-3.4-15.43-7.44-22.59-12.04M105.47,23.7v-11.4c-7.84,3.12-15.39,6.81-22.59,11.04v12.39c7.16-4.6,14.7-8.64,22.59-12.04"/>
    <path class="cls-1" d="M49.22,269.18v15.54c10.03,10.04,21.35,18.77,33.66,25.99v-12.39c-12.57-8.08-23.9-17.9-33.66-29.14M82.88,35.74v-12.39c-12.31,7.23-23.64,15.96-33.66,25.99v15.54c9.76-11.24,21.09-21.07,33.66-29.14"/>
    <path class="cls-1" d="M49.22,64.88v-15.54C19.12,79.47.5,121.07.5,167.03s18.62,87.56,48.72,117.7v-15.54c-23.75-27.37-38.16-63.07-38.16-102.15s14.41-74.78,38.16-102.15"/>
    <path class="cls-1" d="M54.79,183.91c-1.61,0-2.92-1.33-2.92-2.96v-10.5c0-1.64,1.31-2.96,2.92-2.96s2.92,1.33,2.92,2.96v10.5c0,1.64-1.31,2.96-2.92,2.96"/>
    <path class="cls-1" d="M66.02,200.64c-1.61,0-2.92-1.33-2.92-2.96v-20.07c0-1.64,1.31-2.96,2.92-2.96s2.92,1.33,2.92,2.96v20.07c0,1.64-1.31,2.96-2.92,2.96"/>
    <path class="cls-1" d="M77.24,215.83c-1.61,0-2.92-1.33-2.92-2.96v-30.55c0-1.64,1.31-2.96,2.92-2.96s2.92,1.33,2.92,2.96v30.55c0,1.64-1.31,2.96-2.92,2.96"/>
    <path class="cls-1" d="M77.24,247.75c-1.61,0-2.92-1.33-2.92-2.96v-5.5c0-1.64,1.31-2.96,2.92-2.96s2.92,1.33,2.92,2.96v5.5c0,1.64-1.31,2.96-2.92,2.96"/>
    <path class="cls-1" d="M88.47,266.2c-1.61,0-2.92-1.33-2.92-2.96v-80.93c0-1.64,1.31-2.96,2.92-2.96s2.92,1.33,2.92,2.96v80.93c0,1.64-1.31,2.96-2.92,2.96"/>
    <path class="cls-1" d="M99.69,271.2c-1.61,0-2.92-1.33-2.92-2.96v-91.93c0-1.64,1.31-2.96,2.92-2.96s2.92,1.33,2.92,2.96v91.93c0,1.64-1.31,2.96-2.92,2.96"/>
    <path class="cls-1" d="M110.91,266.2c-1.61,0-2.92-1.33-2.92-2.96V122.85c0-1.64,1.31-2.96,2.92-2.96s2.92,1.33,2.92,2.96v140.39c0,1.64-1.31,2.96-2.92,2.96"/>
    <path class="cls-1" d="M122.14,263.51c-1.61,0-2.92-1.33-2.92-2.96v-108.66c0-1.64,1.31-2.96,2.92-2.96s2.92,1.32,2.92,2.96v108.66c0,1.64-1.31,2.96-2.92,2.96"/>
    <path class="cls-1" d="M133.36,258.9c-1.61,0-2.92-1.33-2.92-2.96v-113.66c0-1.64,1.31-2.96,2.92-2.96s2.92,1.33,2.92,2.96v113.66c0,1.64-1.31,2.96-2.92,2.96"/>
    <path class="cls-1" d="M144.59,258.9c-1.61,0-2.92-1.33-2.92-2.96v-127.12c0-1.64,1.31-2.96,2.92-2.96s2.92,1.33,2.92,2.96v127.12c0,1.64-1.31,2.96-2.92,2.96"/>
    <path class="cls-1" d="M155.81,261.01c-1.61,0-2.92-1.33-2.92-2.96v-123.08c0-1.64,1.31-2.96,2.92-2.96s2.92,1.33,2.92,2.96v123.08c0,1.64-1.31,2.96-2.92,2.96"/>
    <path class="cls-1" d="M167.03,261.01c-1.61,0-2.92-1.33-2.92-2.96v-121.54c0-1.64,1.31-2.96,2.92-2.96s2.92,1.33,2.92,2.96v121.54c0,1.64-1.31,2.96-2.92,2.96"/>
    <path class="cls-1" d="M178.26,261.01c-1.61,0-2.92-1.33-2.92-2.96V126.89c0-1.64,1.31-2.96,2.92-2.96s2.92,1.33,2.92,2.96v131.16c0,1.64-1.31,2.96-2.92,2.96"/>
    <path class="cls-1" d="M189.48,251.21c-1.61,0-2.92-1.33-2.92-2.96V113.44c0-1.64,1.31-2.96,2.92-2.96s2.92,1.33,2.92,2.96v134.81c0,1.64-1.31,2.96-2.92,2.96"/>
    <path class="cls-1" d="M245.6,197.59c-1.61,0-2.92-1.33-2.92-2.96v-108.88c0-1.64,1.31-2.96,2.92-2.96s2.92,1.33,2.92,2.96v108.88c0,1.63-1.31,2.96-2.92,2.96"/>
    <path class="cls-1" d="M256.83,132c-1.61,0-2.92-1.33-2.92-2.96v-36.56c0-1.64,1.31-2.96,2.92-2.96s2.92,1.33,2.92,2.96v36.56c0,1.64-1.31,2.96-2.92,2.96"/>
    <path class="cls-1" d="M256.83,183.91c-1.61,0-2.92-1.33-2.92-2.96v-22.89c0-1.63,1.31-2.96,2.92-2.96s2.92,1.33,2.92,2.96v22.89c0,1.64-1.31,2.96-2.92,2.96"/>
    <path class="cls-1" d="M268.05,132c-1.61,0-2.92-1.33-2.92-2.96v-19.45c0-1.64,1.31-2.96,2.92-2.96s2.92,1.33,2.92,2.96v19.45c0,1.64-1.31,2.96-2.92,2.96"/>
    <path class="cls-1" d="M268.05,176.32c-1.61,0-2.92-1.33-2.92-2.96v-15.29c0-1.64,1.31-2.96,2.92-2.96s2.92,1.33,2.92,2.96v15.29c0,1.64-1.31,2.96-2.92,2.96"/>
    <path class="cls-1" d="M279.27,169.09c-1.61,0-2.92-1.33-2.92-2.96v-15.29c0-1.64,1.31-2.96,2.92-2.96s2.92,1.33,2.92,2.96v15.29c0,1.64-1.31,2.96-2.92,2.96"/>
    <path class="cls-1" d="M200.7,183.91c-1.61,0-2.92-1.33-2.92-2.96v-79.63c0-1.64,1.31-2.96,2.92-2.96s2.92,1.33,2.92,2.96v79.63c0,1.64-1.31,2.96-2.92,2.96"/>
    <path class="cls-1" d="M200.7,244.96c-1.61,0-2.92-1.33-2.92-2.96v-36.85c0-1.64,1.31-2.96,2.92-2.96s2.92,1.33,2.92,2.96v36.85c0,1.64-1.31,2.96-2.92,2.96"/>
    <path class="cls-1" d="M211.93,176.32c-1.61,0-2.92-1.33-2.92-2.96v-79.63c0-1.64,1.31-2.96,2.92-2.96s2.92,1.33,2.92,2.96v79.63c0,1.64-1.31,2.96-2.92,2.96"/>
    <path class="cls-1" d="M211.93,238.9c-1.61,0-2.92-1.33-2.92-2.96v-26.76c0-1.64,1.31-2.96,2.92-2.96s2.92,1.33,2.92,2.96v26.76c0,1.64-1.31,2.96-2.92,2.96"/>
    <path class="cls-1" d="M223.15,176.32c-1.61,0-2.92-1.33-2.92-2.96v-84.92c0-1.64,1.31-2.96,2.92-2.96s2.92,1.33,2.92,2.96v84.92c0,1.64-1.31,2.96-2.92,2.96"/>
    <path class="cls-1" d="M223.15,230.28c-1.61,0-2.92-1.33-2.92-2.96v-26.76c0-1.64,1.31-2.96,2.92-2.96s2.92,1.33,2.92,2.96v26.76c0,1.64-1.31,2.96-2.92,2.96"/>
    <path class="cls-1" d="M234.38,182.76c-1.61,0-2.92-1.33-2.92-2.96v-96.55c0-1.64,1.31-2.96,2.92-2.96s2.92,1.33,2.92,2.96v96.55c0,1.64-1.31,2.96-2.92,2.96"/>
    <path class="cls-1" d="M234.38,221.02c-1.61,0-2.92-1.33-2.92-2.96v-26.76c0-1.64,1.31-2.96,2.92-2.96s2.92,1.33,2.92,2.96v26.76c0,1.64-1.31,2.96-2.92,2.96"/>
    <path class="cls-1" d="M293.09,163.28c-2.3,0-4.16,1.68-4.16,3.76s1.86,3.76,4.16,3.76h35.11c2.3,0,4.16-1.68,4.16-3.76s-1.86-3.76-4.16-3.76h-35.11Z"/>
    <path class="cls-1" d="M7.92,163.28c-2.4,0-4.35,1.68-4.35,3.76s1.95,3.76,4.35,3.76h34.55c2.4,0,4.35-1.68,4.35-3.76s-1.95-3.76-4.35-3.76H7.92Z"/>
    <path class="cls-1" d="M289.71,175.63c-1.61,0-2.92-1.33-2.92-2.96v-11.04c0-1.64,1.31-2.96,2.92-2.96s2.92,1.33,2.92,2.96v11.04c0,1.63-1.31,2.96-2.92,2.96"/>
    <path class="cls-1" d="M43.91,175.63c-1.61,0-2.92-1.33-2.92-2.96v-11.04c0-1.64,1.31-2.96,2.92-2.96s2.92,1.33,2.92,2.96v11.04c0,1.63-1.31,2.96-2.92,2.96"/>
  </g>
</svg>