<?xml version="1.0" encoding="UTF-8"?>
<svg id="Layer_2" data-name="Layer 2" xmlns="http://www.w3.org/2000/svg" xmlns:xlink="http://www.w3.org/1999/xlink" viewBox="0 0 523.05 159.33">
  <defs>
    <style>
      .cls-1 {
        fill: none;
      }

      .cls-2 {
        fill: url(#linear-gradient-5);
      }

      .cls-3 {
        fill: url(#linear-gradient-6);
      }

      .cls-4 {
        fill: url(#linear-gradient-4);
      }

      .cls-5 {
        fill: url(#linear-gradient-3);
      }

      .cls-6 {
        fill: url(#linear-gradient-2);
      }

      .cls-7 {
        fill: url(#linear-gradient);
      }

      .cls-8 {
        clip-path: url(#clippath-1);
      }

      .cls-9 {
        clip-path: url(#clippath-3);
      }

      .cls-10 {
        clip-path: url(#clippath-4);
      }

      .cls-11 {
        clip-path: url(#clippath-2);
      }

      .cls-12 {
        clip-path: url(#clippath-5);
      }

      .cls-13 {
        clip-path: url(#clippath);
      }
    </style>
    <clipPath id="clippath">
      <path class="cls-1" d="M.92,25.25c0,18,13.93,22.62,28.79,26.38,12.49,3.12,21.95,3.25,21.95,11.88,0,4.87-4.99,7.62-11.96,7.62-10.38,0-16.95-5.5-19.06-10.38l-20.64,3.27c3.02,13.62,15.38,25.86,38.91,25.86,21.29,0,35.1-10.5,35.1-26.38s-11.44-21.62-29.31-26.12c-15.25-3.88-21.43-5-21.43-10.88s6.83-7.75,11.83-7.75c7.62,0,13.48,2.64,14.79,7.76l19.96-5.16C67.61,10.6,58.63,0,34.71,0,15.12,0,.92,12.38.92,25.25Z"/>
    </clipPath>
    <linearGradient id="linear-gradient" x1="-985.38" y1="52.26" x2="-984.38" y2="52.26" gradientTransform="translate(4734.05 88563.33) rotate(90) scale(89.88)" gradientUnits="userSpaceOnUse">
      <stop offset="0" stop-color="#fff"/>
      <stop offset=".01" stop-color="#fbe040"/>
      <stop offset=".2" stop-color="#f9d73e"/>
      <stop offset=".54" stop-color="#f7c13a"/>
      <stop offset=".99" stop-color="#f39b34"/>
      <stop offset="1" stop-color="#f39b34"/>
      <stop offset="1" stop-color="#000"/>
    </linearGradient>
    <clipPath id="clippath-1">
      <path class="cls-1" d="M110.11,70.61c-2.24-1.81-3.35-4.38-3.35-7.69v-.32c0-3.85,1.36-6.78,4.08-8.81,2.72-2.03,6.45-3.04,11.22-3.04,2.72,0,5.27.29,7.65.88,2.38.59,4.54,1.36,6.48,2.32v4.33c0,4.49-1.58,8.12-4.73,10.9-3.16,2.78-7.36,4.17-12.6,4.17-3.59,0-6.51-.91-8.74-2.72M105.44,3.64c-4.66,1.28-9.13,2.94-13.4,4.97l5.53,18.59c3.59-1.5,7.02-2.64,10.27-3.45,3.25-.8,7.02-1.2,11.29-1.2,5.53,0,9.71,1.34,12.53,4.01,2.82,2.67,4.22,6.57,4.22,11.7v1.44c-2.82-1.06-5.71-1.92-8.67-2.56-2.96-.64-6.43-.96-10.41-.96-4.66,0-8.91.56-12.74,1.68-3.84,1.12-7.14,2.8-9.9,5.05-2.77,2.24-4.93,5.07-6.48,8.49-1.55,3.42-2.33,7.48-2.33,12.18v.32c0,4.27.7,8.04,2.11,11.3,1.41,3.26,3.33,6.01,5.75,8.25,2.43,2.24,5.27,3.93,8.52,5.05,3.25,1.12,6.72,1.68,10.41,1.68,5.44,0,10.05-.99,13.84-2.96,3.79-1.98,7.04-4.62,9.76-7.93v11.72l21.41-3.9v-48.36c0-11.64-2.77-20.72-8.3-27.24-5.53-6.52-14.37-9.77-26.51-9.77-6.61,0-12.23.64-16.9,1.92Z"/>
    </clipPath>
    <linearGradient id="linear-gradient-2" x1="-985.36" y1="52.22" x2="-984.36" y2="52.22" gradientTransform="translate(4783.21 87964.48) rotate(90) scale(89.27)" xlink:href="#linear-gradient"/>
    <clipPath id="clippath-2">
      <path class="cls-1" d="M247.13,4.54c-4.18,2.31-7.96,5.73-11.36,10.25-2.04-4.41-4.93-7.8-8.67-10.17-3.74-2.37-8.18-3.55-13.33-3.55-2.82,0-5.37.38-7.65,1.13-2.28.76-4.35,1.78-6.19,3.07-1.84,1.29-3.52,2.77-5.02,4.44-1.51,1.67-2.89,3.42-4.15,5.24V2.68l-22.14,4.85v81.03h22.14v-47.79c0-5.75,1.19-10.1,3.57-13.02,2.38-2.93,5.66-4.4,9.83-4.4s7.38,1.47,9.61,4.4c2.23,2.93,3.35,7.27,3.35,13.02v47.79h22.14v-47.79c0-5.75,1.19-10.1,3.57-13.02,2.38-2.93,5.66-4.4,9.83-4.4s7.38,1.47,9.61,4.4c2.23,2.93,3.35,7.27,3.35,13.02v47.79h22.14v-55.92c0-10.36-2.33-18.21-6.99-23.56-4.66-5.34-11.12-8.01-19.37-8.01-5.35,0-10.1,1.16-14.28,3.47Z"/>
    </clipPath>
    <linearGradient id="linear-gradient-3" x1="-985.27" y1="52.11" x2="-984.27" y2="52.11" gradientTransform="translate(4786.87 86195.63) rotate(90) scale(87.48)" xlink:href="#linear-gradient"/>
    <clipPath id="clippath-3">
      <path class="cls-1" d="M332.67,67.96c-2.28-1.13-4.28-2.74-5.97-4.84-1.7-2.1-3.06-4.62-4.08-7.58-1.02-2.96-1.53-6.21-1.53-9.76v-.32c0-3.55.51-6.8,1.53-9.76,1.02-2.96,2.38-5.48,4.08-7.58,1.7-2.1,3.69-3.71,5.97-4.84,2.28-1.13,4.73-1.7,7.35-1.7s5.07.56,7.36,1.7c2.28,1.13,4.3,2.74,6.04,4.84,1.75,2.1,3.13,4.62,4.15,7.58,1.02,2.95,1.53,6.21,1.53,9.76v.32c0,3.66-.51,6.94-1.53,9.84s-2.4,5.4-4.15,7.5c-1.75,2.1-3.77,3.71-6.04,4.84-2.28,1.13-4.73,1.69-7.36,1.69s-5.08-.56-7.35-1.69M331.21,4.97c-3.84,2.6-7.11,5.91-9.83,9.94V2.68h-22.14v113.94l22.14-6.5v-32.68c2.62,3.39,5.85,6.36,9.69,8.9,3.84,2.54,8.71,3.82,14.64,3.82,4.66,0,9.13-.96,13.4-2.89,4.27-1.92,8.03-4.78,11.29-8.57,3.25-3.79,5.87-8.44,7.86-13.94,1.99-5.5,2.98-11.83,2.98-18.99v-.32c0-7.15-1-13.48-2.98-18.99-1.99-5.5-4.64-10.15-7.94-13.94-3.3-3.79-7.09-6.65-11.36-8.57-4.28-1.92-8.69-2.89-13.26-2.89-5.83,0-10.66,1.3-14.49,3.89Z"/>
    </clipPath>
    <linearGradient id="linear-gradient-4" x1="-986.29" y1="53.49" x2="-985.29" y2="53.49" gradientTransform="translate(6521.02 113962.74) rotate(90) scale(115.55)" xlink:href="#linear-gradient"/>
    <clipPath id="clippath-4">
      <path class="cls-1" d="M424.03,5.88c-3.88,3.52-6.94,8.23-9.18,14.1V2.68l-22.14,4.85v81.03h22.14v-31.72c0-10.36,2.11-18,6.34-22.91,4.22-4.91,10.03-7.37,17.41-7.37h1.16V1.07c-.55-.03-1.09-.04-1.62-.04-5.84,0-10.55,1.62-14.11,4.85Z"/>
    </clipPath>
    <linearGradient id="linear-gradient-5" x1="-985.27" y1="52.11" x2="-984.27" y2="52.11" gradientTransform="translate(4977.24 86235.21) rotate(90) scale(87.52)" xlink:href="#linear-gradient"/>
    <clipPath id="clippath-5">
      <path class="cls-1" d="M475.99,70.61c-2.23-1.81-3.35-4.38-3.35-7.69v-.32c0-3.85,1.36-6.78,4.08-8.81,2.72-2.03,6.46-3.04,11.22-3.04,2.72,0,5.27.29,7.65.88,2.38.59,4.54,1.36,6.48,2.32v4.33c0,4.49-1.58,8.12-4.73,10.9-3.16,2.78-7.35,4.17-12.6,4.17-3.59,0-6.51-.91-8.74-2.72M471.34,3.64c-4.66,1.28-9.13,2.94-13.4,4.97l5.53,18.59c3.59-1.5,7.02-2.64,10.27-3.45,3.25-.8,7.02-1.2,11.29-1.2,5.53,0,9.71,1.34,12.53,4.01,2.82,2.67,4.23,6.57,4.23,11.7v1.44c-2.82-1.06-5.71-1.92-8.67-2.56-2.96-.64-6.43-.96-10.41-.96-4.66,0-8.91.56-12.74,1.68-3.84,1.12-7.14,2.8-9.9,5.05-2.77,2.24-4.93,5.07-6.48,8.49-1.56,3.42-2.33,7.48-2.33,12.18v.32c0,4.27.7,8.04,2.11,11.3,1.41,3.26,3.33,6.01,5.75,8.25,2.43,2.24,5.27,3.93,8.52,5.05,3.25,1.12,6.72,1.68,10.41,1.68,5.44,0,10.05-.99,13.84-2.96s7.04-4.62,9.76-7.93v11.72l21.41-4.86v-47.4c0-11.64-2.77-20.72-8.3-27.24-5.54-6.52-14.37-9.77-26.51-9.77-6.61,0-12.24.64-16.9,1.92Z"/>
    </clipPath>
    <linearGradient id="linear-gradient-6" x1="-985.36" y1="52.22" x2="-984.36" y2="52.22" gradientTransform="translate(5149.15 87964.48) rotate(90) scale(89.27)" xlink:href="#linear-gradient"/>
  </defs>
  <g id="Layer_1-2" data-name="Layer 1">
    <g class="cls-13">
      <rect class="cls-7" x="0" width="74.01" height="89.88"/>
    </g>
    <g class="cls-8">
      <rect class="cls-6" x="85.34" y="1.72" width="71.81" height="89.27"/>
    </g>
    <g class="cls-11">
      <rect class="cls-5" x="168.62" y="1.07" width="119.15" height="87.48"/>
    </g>
    <g class="cls-9">
      <rect class="cls-4" x="299.24" y="1.07" width="82.01" height="115.55"/>
    </g>
    <g class="cls-10">
      <rect class="cls-2" x="392.72" y="1.04" width="47.05" height="87.52"/>
    </g>
    <g class="cls-12">
      <rect class="cls-3" x="451.23" y="1.72" width="71.81" height="89.27"/>
    </g>
    <path d="M518.21,148.33c0-.93-.16-1.79-.47-2.58-.31-.79-.74-1.47-1.29-2.04-.55-.57-1.22-1.01-2-1.32-.78-.31-1.64-.47-2.58-.47h-3.57v12.82h3.57c.94,0,1.8-.15,2.58-.46.78-.3,1.44-.74,2-1.31.55-.57.98-1.23,1.29-2.01.31-.77.47-1.63.47-2.58v-.06ZM522.23,152.53c-.54,1.3-1.3,2.42-2.29,3.37-.99.95-2.17,1.7-3.54,2.25-1.37.55-2.88.82-4.52.82h-8.19v-21.27h8.19c1.64,0,3.15.27,4.52.8,1.37.54,2.55,1.28,3.54,2.23.99.95,1.75,2.07,2.29,3.36.54,1.29.81,2.68.81,4.18v.06c0,1.5-.27,2.9-.81,4.19M482.12,158.97l-10.17-13.52v13.52h-4.56v-21.27h4.26l9.84,13.1v-13.1h4.56v21.27h-3.93ZM449.43,153.93c-.43,1.19-1.05,2.19-1.85,2.99-.8.8-1.77,1.4-2.91,1.79-1.14.4-2.41.59-3.81.59-2.82,0-5.04-.79-6.66-2.37s-2.43-3.94-2.43-7.08v-12.15h4.62v12.03c0,1.74.4,3.05,1.2,3.93.8.88,1.91,1.32,3.33,1.32s2.53-.43,3.33-1.28c.8-.85,1.2-2.13,1.2-3.83v-12.19h4.62v12c0,1.62-.21,3.03-.64,4.22M404.44,141.92v4.59h10.02v4.22h-10.02v8.23h-4.62v-21.27h15.99v4.23h-11.37ZM355.68,142.01v16.96h-4.62v-16.96h-6.39v-4.32h17.4v4.32h-6.39ZM324.59,158.97l-10.17-13.52v13.52h-4.56v-21.27h4.26l9.84,13.1v-13.1h4.56v21.27h-3.93ZM277.15,158.97v-21.27h15.81v4.16h-11.25v4.32h9.9v4.16h-9.9v4.47h11.4v4.16h-15.96ZM254.95,158.97v-13.89l-5.91,9.09h-.12l-5.85-8.99v13.8h-4.56v-21.27h4.98l5.52,8.99,5.52-8.99h4.98v21.27h-4.56ZM217.81,145.14c0-1.05-.34-1.85-1.01-2.4s-1.59-.82-2.75-.82h-3.57v6.5h3.66c1.16,0,2.06-.31,2.7-.93.64-.62.96-1.38.96-2.29v-.06h0ZM221.83,148.36c-.44.93-1.05,1.71-1.81,2.34-.77.63-1.67,1.1-2.7,1.41-1.03.31-2.14.47-3.32.47h-3.51v6.38h-4.62v-21.27h8.58c1.26,0,2.39.18,3.38.53.99.35,1.83.86,2.52,1.5.69.65,1.22,1.42,1.59,2.33.37.9.55,1.9.55,2.99v.06c0,1.23-.22,2.32-.66,3.25M184.32,148.33c0-.91-.16-1.77-.46-2.58-.31-.81-.75-1.52-1.32-2.13-.57-.61-1.24-1.09-2.02-1.44-.78-.35-1.63-.53-2.55-.53s-1.8.17-2.57.52c-.77.35-1.43.82-1.98,1.43-.55.61-.98,1.31-1.29,2.11-.31.8-.47,1.66-.47,2.57v.06c0,.91.16,1.77.47,2.58.31.81.75,1.52,1.32,2.13.57.61,1.24,1.09,2.01,1.44.77.35,1.62.53,2.57.53s1.77-.17,2.55-.52c.78-.35,1.45-.82,2-1.43.55-.61.98-1.31,1.29-2.11.31-.8.46-1.66.46-2.57v-.06h0ZM188.31,152.6c-.56,1.33-1.34,2.49-2.33,3.49-.99,1-2.17,1.79-3.54,2.37-1.37.58-2.86.87-4.48.87s-3.11-.29-4.47-.87c-1.36-.58-2.53-1.36-3.52-2.34-.99-.98-1.76-2.14-2.31-3.46s-.83-2.75-.83-4.27v-.06c0-1.52.28-2.94.84-4.27.56-1.33,1.34-2.49,2.33-3.49.99-1,2.17-1.79,3.54-2.37,1.37-.58,2.86-.87,4.49-.87s3.11.29,4.47.87c1.36.58,2.54,1.36,3.53,2.34.99.98,1.76,2.14,2.31,3.46s.83,2.75.83,4.27v.06c0,1.52-.28,2.94-.84,4.27M136.58,158.97v-21.27h4.62v17.05h10.47v4.22h-15.09ZM103.88,158.97v-21.27h15.81v4.16h-11.25v4.32h9.9v4.16h-9.9v4.47h11.4v4.16h-15.96ZM79.54,159.12h-4.08l-8.49-21.42h5.1l5.49,14.98,5.49-14.98h4.98l-8.49,21.42ZM36.07,158.97v-21.27h15.81v4.16h-11.25v4.32h9.9v4.16h-9.9v4.47h11.4v4.16h-15.96ZM14.52,148.33c0-.93-.15-1.79-.46-2.58-.31-.79-.74-1.47-1.29-2.04-.55-.57-1.22-1.01-2-1.32-.78-.31-1.64-.47-2.58-.47h-3.57v12.82h3.57c.94,0,1.8-.15,2.58-.46.78-.3,1.45-.74,2-1.31.55-.57.98-1.23,1.29-2.01.31-.77.46-1.63.46-2.58v-.06ZM18.54,152.53c-.54,1.3-1.31,2.42-2.3,3.37-.99.95-2.17,1.7-3.54,2.25-1.37.55-2.88.82-4.52.82H0v-21.27h8.19c1.64,0,3.15.27,4.52.8,1.37.54,2.55,1.28,3.54,2.23.99.95,1.76,2.07,2.3,3.36.54,1.29.81,2.68.81,4.18v.06c0,1.5-.27,2.9-.81,4.19"/>
  </g>
</svg>