<?xml version="1.0" encoding="UTF-8"?>
<svg id="Layer_2" data-name="Layer 2" xmlns="http://www.w3.org/2000/svg" viewBox="0 0 333.06 333.06">
  <defs>
    <style>
      .cls-1 {
        fill: #f29320;
      }

      .cls-2 {
        fill: #feca38;
      }

      .cls-3 {
        fill: #c42126;
      }

      .cls-4 {
        fill: #25408f;
      }

      .cls-5 {
        fill: #003912;
      }

      .cls-6 {
        fill: #193902;
      }

      .cls-7 {
        fill: #41ad49;
      }

      .cls-8 {
        fill: #2fa9e0;
      }

      .cls-9 {
        fill: #ef3824;
      }
    </style>
  </defs>
  <g id="Layer_1-2" data-name="Layer 1">
    <path class="cls-4" d="M333.06,166.53c0-39.76-13.95-76.25-37.2-104.88v17.66c16.82,24.9,26.64,54.91,26.64,87.22s-9.82,62.32-26.64,87.22v17.66c23.25-28.63,37.2-65.12,37.2-104.88"/>
    <path class="cls-4" d="M262.2,289.68v13.13c12.62-8.88,23.95-19.44,33.66-31.39v-17.66c-9.25,13.69-20.65,25.8-33.66,35.93M295.86,79.31v-17.66c-9.7-11.95-21.04-22.52-33.66-31.39v13.13c13.01,10.13,24.41,22.24,33.66,35.93"/>
    <path class="cls-8" d="M239.61,304.33v11.86c7.91-3.87,15.45-8.36,22.59-13.39v-13.13c-7.07,5.5-14.62,10.42-22.59,14.66M262.2,43.39v-13.13c-7.14-5.02-14.68-9.52-22.59-13.39v11.86c7.97,4.24,15.52,9.15,22.59,14.65"/>
    <path class="cls-2" d="M205.95,317.47v10.86c11.76-2.85,23.03-6.94,33.66-12.14v-11.86c-10.56,5.61-21.83,10.06-33.66,13.14M239.61,28.73v-11.86c-10.63-5.2-21.9-9.28-33.66-12.14v10.86c11.83,3.08,23.1,7.53,33.66,13.14"/>
    <path class="cls-1" d="M172.29,322.36v10.56c11.56-.39,22.82-1.96,33.66-4.59v-10.86c-10.81,2.82-22.08,4.47-33.66,4.89M205.95,15.59V4.74c-10.85-2.63-22.1-4.2-33.66-4.59v10.56c11.59.42,22.85,2.08,33.66,4.89"/>
    <path class="cls-3" d="M138.63,319.97v10.72c9.08,1.53,18.39,2.37,27.9,2.37,1.93,0,3.84-.08,5.76-.15v-10.56c-1.91.07-3.83.15-5.76.15-9.53,0-18.85-.9-27.9-2.54M172.29,10.7V.15c-1.91-.06-3.83-.15-5.76-.15-9.51,0-18.83.84-27.9,2.37v10.72c9.06-1.64,18.37-2.54,27.9-2.54,1.93,0,3.84.08,5.76.15"/>
    <path class="cls-9" d="M104.97,309.87v11.4c10.72,4.27,21.98,7.46,33.66,9.43v-10.72c-11.73-2.12-23-5.52-33.66-10.1M138.63,13.1V2.37c-11.68,1.97-22.94,5.16-33.66,9.43v11.4c10.66-4.58,21.93-7.98,33.66-10.1"/>
    <path class="cls-5" d="M82.38,297.83v12.39c7.2,4.23,14.75,7.92,22.59,11.04v-11.4c-7.9-3.4-15.43-7.44-22.59-12.04M104.97,23.2v-11.4c-7.84,3.12-15.39,6.81-22.59,11.04v12.39c7.16-4.6,14.7-8.64,22.59-12.04"/>
    <path class="cls-7" d="M48.72,268.68v15.54c10.03,10.04,21.35,18.77,33.66,25.99v-12.39c-12.57-8.08-23.9-17.9-33.66-29.14M82.38,35.24v-12.39c-12.31,7.23-23.64,15.96-33.66,25.99v15.54c9.76-11.24,21.09-21.07,33.66-29.14"/>
    <path class="cls-7" d="M48.72,64.38v-15.54C18.62,78.97,0,120.57,0,166.53s18.62,87.56,48.72,117.7v-15.54c-23.75-27.37-38.16-63.07-38.16-102.15s14.41-74.78,38.16-102.15"/>
    <path class="cls-7" d="M54.29,183.41c-1.61,0-2.92-1.33-2.92-2.96v-10.5c0-1.64,1.31-2.96,2.92-2.96s2.92,1.33,2.92,2.96v10.5c0,1.64-1.31,2.96-2.92,2.96"/>
    <path class="cls-7" d="M65.52,200.14c-1.61,0-2.92-1.33-2.92-2.96v-20.07c0-1.64,1.31-2.96,2.92-2.96s2.92,1.33,2.92,2.96v20.07c0,1.64-1.31,2.96-2.92,2.96"/>
    <path class="cls-7" d="M76.74,215.33c-1.61,0-2.92-1.33-2.92-2.96v-30.55c0-1.64,1.31-2.96,2.92-2.96s2.92,1.33,2.92,2.96v30.55c0,1.64-1.31,2.96-2.92,2.96"/>
    <path class="cls-7" d="M76.74,247.25c-1.61,0-2.92-1.33-2.92-2.96v-5.5c0-1.64,1.31-2.96,2.92-2.96s2.92,1.33,2.92,2.96v5.5c0,1.64-1.31,2.96-2.92,2.96"/>
    <path class="cls-6" d="M87.97,265.7c-1.61,0-2.92-1.33-2.92-2.96v-80.93c0-1.64,1.31-2.96,2.92-2.96s2.92,1.33,2.92,2.96v80.93c0,1.64-1.31,2.96-2.92,2.96"/>
    <path class="cls-6" d="M99.19,270.7c-1.61,0-2.92-1.33-2.92-2.96v-91.93c0-1.64,1.31-2.96,2.92-2.96s2.92,1.33,2.92,2.96v91.93c0,1.64-1.31,2.96-2.92,2.96"/>
    <path class="cls-9" d="M110.41,265.7c-1.61,0-2.92-1.33-2.92-2.96V122.35c0-1.64,1.31-2.96,2.92-2.96s2.92,1.33,2.92,2.96v140.39c0,1.64-1.31,2.96-2.92,2.96"/>
    <path class="cls-9" d="M121.64,263.01c-1.61,0-2.92-1.33-2.92-2.96v-108.66c0-1.64,1.31-2.96,2.92-2.96s2.92,1.32,2.92,2.96v108.66c0,1.64-1.31,2.96-2.92,2.96"/>
    <path class="cls-9" d="M132.86,258.4c-1.61,0-2.92-1.33-2.92-2.96v-113.66c0-1.64,1.31-2.96,2.92-2.96s2.92,1.33,2.92,2.96v113.66c0,1.64-1.31,2.96-2.92,2.96"/>
    <path class="cls-3" d="M144.09,258.4c-1.61,0-2.92-1.33-2.92-2.96v-127.12c0-1.64,1.31-2.96,2.92-2.96s2.92,1.33,2.92,2.96v127.12c0,1.64-1.31,2.96-2.92,2.96"/>
    <path class="cls-3" d="M155.31,260.51c-1.61,0-2.92-1.33-2.92-2.96v-123.08c0-1.64,1.31-2.96,2.92-2.96s2.92,1.33,2.92,2.96v123.08c0,1.64-1.31,2.96-2.92,2.96"/>
    <path class="cls-3" d="M166.53,260.51c-1.61,0-2.92-1.33-2.92-2.96v-121.54c0-1.64,1.31-2.96,2.92-2.96s2.92,1.33,2.92,2.96v121.54c0,1.64-1.31,2.96-2.92,2.96"/>
    <path class="cls-1" d="M177.76,260.51c-1.61,0-2.92-1.33-2.92-2.96V126.39c0-1.64,1.31-2.96,2.92-2.96s2.92,1.33,2.92,2.96v131.16c0,1.64-1.31,2.96-2.92,2.96"/>
    <path class="cls-1" d="M188.98,250.71c-1.61,0-2.92-1.33-2.92-2.96V112.94c0-1.64,1.31-2.96,2.92-2.96s2.92,1.33,2.92,2.96v134.81c0,1.64-1.31,2.96-2.92,2.96"/>
    <path class="cls-8" d="M245.1,197.09c-1.61,0-2.92-1.33-2.92-2.96v-108.88c0-1.64,1.31-2.96,2.92-2.96s2.92,1.33,2.92,2.96v108.88c0,1.63-1.31,2.96-2.92,2.96"/>
    <path class="cls-8" d="M256.33,131.5c-1.61,0-2.92-1.33-2.92-2.96v-36.56c0-1.64,1.31-2.96,2.92-2.96s2.92,1.33,2.92,2.96v36.56c0,1.64-1.31,2.96-2.92,2.96"/>
    <path class="cls-8" d="M256.33,183.41c-1.61,0-2.92-1.33-2.92-2.96v-22.89c0-1.63,1.31-2.96,2.92-2.96s2.92,1.33,2.92,2.96v22.89c0,1.64-1.31,2.96-2.92,2.96"/>
    <path class="cls-4" d="M267.55,131.5c-1.61,0-2.92-1.33-2.92-2.96v-19.45c0-1.64,1.31-2.96,2.92-2.96s2.92,1.33,2.92,2.96v19.45c0,1.64-1.31,2.96-2.92,2.96"/>
    <path class="cls-4" d="M267.55,175.82c-1.61,0-2.92-1.33-2.92-2.96v-15.29c0-1.64,1.31-2.96,2.92-2.96s2.92,1.33,2.92,2.96v15.29c0,1.64-1.31,2.96-2.92,2.96"/>
    <path class="cls-4" d="M278.77,168.59c-1.61,0-2.92-1.33-2.92-2.96v-15.29c0-1.64,1.31-2.96,2.92-2.96s2.92,1.33,2.92,2.96v15.29c0,1.64-1.31,2.96-2.92,2.96"/>
    <path class="cls-1" d="M200.2,183.41c-1.61,0-2.92-1.33-2.92-2.96v-79.63c0-1.64,1.31-2.96,2.92-2.96s2.92,1.33,2.92,2.96v79.63c0,1.64-1.31,2.96-2.92,2.96"/>
    <path class="cls-1" d="M200.2,244.46c-1.61,0-2.92-1.33-2.92-2.96v-36.85c0-1.64,1.31-2.96,2.92-2.96s2.92,1.33,2.92,2.96v36.85c0,1.64-1.31,2.96-2.92,2.96"/>
    <path class="cls-2" d="M211.43,175.82c-1.61,0-2.92-1.33-2.92-2.96v-79.63c0-1.64,1.31-2.96,2.92-2.96s2.92,1.33,2.92,2.96v79.63c0,1.64-1.31,2.96-2.92,2.96"/>
    <path class="cls-2" d="M211.43,238.4c-1.61,0-2.92-1.33-2.92-2.96v-26.76c0-1.64,1.31-2.96,2.92-2.96s2.92,1.33,2.92,2.96v26.76c0,1.64-1.31,2.96-2.92,2.96"/>
    <path class="cls-2" d="M222.65,175.82c-1.61,0-2.92-1.33-2.92-2.96v-84.92c0-1.64,1.31-2.96,2.92-2.96s2.92,1.33,2.92,2.96v84.92c0,1.64-1.31,2.96-2.92,2.96"/>
    <path class="cls-2" d="M222.65,229.78c-1.61,0-2.92-1.33-2.92-2.96v-26.76c0-1.64,1.31-2.96,2.92-2.96s2.92,1.33,2.92,2.96v26.76c0,1.64-1.31,2.96-2.92,2.96"/>
    <path class="cls-2" d="M233.88,182.26c-1.61,0-2.92-1.33-2.92-2.96v-96.55c0-1.64,1.31-2.96,2.92-2.96s2.92,1.33,2.92,2.96v96.55c0,1.64-1.31,2.96-2.92,2.96"/>
    <path class="cls-2" d="M233.88,220.52c-1.61,0-2.92-1.33-2.92-2.96v-26.76c0-1.64,1.31-2.96,2.92-2.96s2.92,1.33,2.92,2.96v26.76c0,1.64-1.31,2.96-2.92,2.96"/>
    <path class="cls-4" d="M292.59,162.78c-2.3,0-4.16,1.68-4.16,3.76s1.86,3.76,4.16,3.76h35.11c2.3,0,4.16-1.68,4.16-3.76s-1.86-3.76-4.16-3.76h-35.11Z"/>
    <path class="cls-7" d="M7.42,162.78c-2.4,0-4.35,1.68-4.35,3.76s1.95,3.76,4.35,3.76h34.55c2.4,0,4.35-1.68,4.35-3.76s-1.95-3.76-4.35-3.76H7.42Z"/>
    <path class="cls-4" d="M289.21,175.13c-1.61,0-2.92-1.33-2.92-2.96v-11.04c0-1.64,1.31-2.96,2.92-2.96s2.92,1.33,2.92,2.96v11.04c0,1.63-1.31,2.96-2.92,2.96"/>
    <path class="cls-7" d="M43.41,175.13c-1.61,0-2.92-1.33-2.92-2.96v-11.04c0-1.64,1.31-2.96,2.92-2.96s2.92,1.33,2.92,2.96v11.04c0,1.63-1.31,2.96-2.92,2.96"/>
  </g>
</svg>