<?xml version="1.0" encoding="UTF-8"?>
<svg id="Layer_2" data-name="Layer 2" xmlns="http://www.w3.org/2000/svg" viewBox="0 0 624.94 449.72">
  <defs>
    <style>
      .cls-1, .cls-2 {
        stroke: #fec745;
      }

      .cls-1, .cls-2, .cls-3, .cls-4, .cls-5, .cls-6, .cls-7, .cls-8 {
        fill: none;
        stroke-miterlimit: 10;
      }

      .cls-1, .cls-7 {
        stroke-width: 3px;
      }

      .cls-2 {
        stroke-width: 4px;
      }

      .cls-9 {
        fill: #76829c;
      }

      .cls-3 {
        stroke-width: 2px;
      }

      .cls-3, .cls-4, .cls-7, .cls-8 {
        stroke: #112744;
      }

      .cls-10 {
        fill: #122741;
      }

      .cls-11 {
        fill: #102644;
      }

      .cls-12 {
        fill: #af6533;
      }

      .cls-13 {
        fill: #112744;
      }

      .cls-5 {
        stroke: #102644;
      }

      .cls-14 {
        fill: #3b4f6e;
      }

      .cls-15 {
        fill: #122b67;
      }

      .cls-16 {
        fill: #864e2a;
      }

      .cls-17 {
        fill: #fefefe;
      }

      .cls-6 {
        stroke: #fefefe;
      }

      .cls-18 {
        fill: #fec745;
      }

      .cls-8 {
        stroke-width: 7px;
      }
    </style>
  </defs>
  <g id="lady">
    <path class="cls-12" d="M316.11,43.99s-37.57,14.13-44.31,37.57c-6.74,23.44-3.09,18.03-3.09,18.03,0,0-8.46,8.62-12.64,9.9-4.17,1.28-11.24,4.17-8.99,9.63s6.74,7.38,6.74,7.38l-3.21,5.14s-3.56.3-4.1,2.87.89,6.92,5.38,7.89,7.38,1.77,7.38,1.77c0,0-14.61,2.05-14.13,5.14.36,2.32,4.17,6.1,4.17,6.1l2.57,3.53s-5.78,3.85-4.17,12.2c1.61,8.35,13.48,8.99,14.13,9.63s29.01.42,29.01.42l14.21,54.33-9.82,27.44s80.43-56.67,78.02-59.88c-6.76-9.02-12.04-39.49-12.04-39.49l-10.14-19.37s17.36-11.77,9.7-24.91c-6.02-10.32-20.27-3.08-20.27-3.08l18.62-32.75-32.11-46.88-10.92,7.38Z"/>
    <g>
      <path class="cls-13" d="M289.39,36.64c-.26-.67-.44-1.37-.55-2.09-.5.72-.94,1.44-1.33,2.15.39-.06.79-.09,1.2-.09.23,0,.46.02.68.03Z"/>
      <path class="cls-13" d="M375.63,156.68c3.22,0,6.12,1.22,8.21,3.17-.15-.66-.23-1.35-.23-2.05,0-3.89,2.35-7.23,5.7-8.69-1.37-2.3-2.17-4.98-2.17-7.85,0-8.51,6.9-15.41,15.41-15.41,3.32,0,6.38,1.06,8.89,2.84-.66-1.51-1.03-3.17-1.03-4.93,0-6.83,5.53-12.36,12.36-12.36,3.14,0,6,1.18,8.18,3.11.86-3.11,1.41-6.16,1.71-9.08-1.34.73-2.84,1.16-4.43,1.16-5.67,0-10.27-5.25-10.27-11.72s4.6-11.72,10.27-11.72c.92,0,1.81.15,2.67.41-.66-2.48-1.31-4.31-1.69-5.29-1.85,1.17-4.03,1.85-6.37,1.85-6.6,0-11.95-5.35-11.95-11.95,0-2.91,1.04-5.58,2.77-7.65-1.77.78-3.71,1.21-5.74,1.21-8.2,0-14.85-7-14.85-15.63,0-2.64.63-5.13,1.73-7.31-5.43-.74-9.6-4.8-9.6-9.71,0-.95.16-1.87.45-2.74-1.53.89-3.3,1.4-5.19,1.4-3.58,0-6.73-1.82-8.59-4.58-1.62,1.26-3.65,2.01-5.86,2.01-2.55,0-4.86-1-6.58-2.62-2.02,1.64-4.54,2.62-7.28,2.62-4.69,0-8.74-2.86-10.69-7-1.39,4.07-5.25,7-9.79,7-1.8,0-3.5-.46-4.97-1.27.05.42.08.84.08,1.27,0,6.29-5.1,11.4-11.4,11.4-2.39,0-4.6-.74-6.44-1.99-.78,4.86-4.98,8.58-10.05,8.58-.68,0-1.35-.07-1.99-.2.17.67.27,1.37.27,2.09,0,.32-.02.63-.05.93,2.68,1.39,4.51,4.18,4.51,7.4,0,.29-.01.57-.04.85,1.31-1.2,3.05-1.93,4.97-1.93,4.08,0,7.38,3.31,7.38,7.38,0,2.86-1.63,5.33-4,6.56l8.55,5.94c.5-6.64,5.16-11.85,10.84-11.85,6.01,0,10.89,5.83,10.89,13.03,0,1.51-.22,2.95-.62,4.29,5.42,1.08,9.5,5.86,9.5,11.6,0,6.54-5.3,11.83-11.83,11.83-1.46,0-2.85-.28-4.14-.76l4.14,22.54c2.96-2.76,5.94-5.47,9.26-7.86,2.52-1.81,6.86-1.05,8.87,1.14,5.17,5.66,2.63,13.83-.38,19.91-2.32,4.67-6.9,10.48-12.5,10.83,2.19,4.94,6.88,13.32,15.72,20.48,2.23,1.8,4.44,3.07,6.71,3.82-.53-1.22-.83-2.55-.83-3.94,0-5.85,5.16-10.6,11.52-10.6Z"/>
      <path class="cls-13" d="M304.36,22.36c-.69.35-1.37.69-2.01,1.04.59.21,1.16.48,1.69.79.06-.63.17-1.24.32-1.83Z"/>
      <path class="cls-13" d="M386.91,165.16s.07-.05.11-.08c-.06-.05-.11-.11-.17-.16.02.08.05.15.06.23Z"/>
      <path class="cls-13" d="M419.55,56.71l-.3-.47h0c-.23.28-.46.55-.71.82.33-.13.67-.24,1.02-.34Z"/>
      <path class="cls-13" d="M390.48,20.81c-.06-.04-.12-.09-.18-.13-.03.09-.07.19-.1.28.09-.05.19-.1.28-.15Z"/>
      <path class="cls-13" d="M349.1,89.28c0-5.74-4.08-10.52-9.5-11.6.39-1.35.62-2.79.62-4.29,0-7.2-4.88-13.03-10.89-13.03-5.68,0-10.34,5.21-10.84,11.85-.03.39-.05.78-.05,1.18,0,5.79,3.16,10.69,7.53,12.39-.34,1.11-.53,2.28-.53,3.5,0,5.08,3.2,9.39,7.69,11.07,1.29.48,2.68.76,4.14.76,6.54,0,11.83-5.3,11.83-11.83Z"/>
      <path class="cls-13" d="M313.94,59.72c0-4.08-3.31-7.38-7.38-7.38-1.91,0-3.65.74-4.97,1.93.03-.28.04-.56.04-.85,0-3.22-1.83-6.02-4.51-7.4.03-.31.05-.62.05-.93,0-.72-.1-1.42-.27-2.09.64.13,1.31.2,1.99.2,5.08,0,9.28-3.72,10.05-8.58,1.83,1.26,4.05,1.99,6.44,1.99,6.29,0,11.4-5.1,11.4-11.4,0-.43-.03-.85-.08-1.27,1.48.81,3.17,1.27,4.97,1.27,4.54,0,8.4-2.93,9.79-7,1.96,4.15,6,7,10.69,7,2.74,0,5.26-.99,7.28-2.62,1.72,1.62,4.03,2.62,6.58,2.62,2.21,0,4.24-.75,5.86-2.01,1.86,2.76,5.01,4.58,8.59,4.58,1.89,0,3.66-.52,5.19-1.4-.29.87-.45,1.79-.45,2.74,0,4.91,4.16,8.98,9.6,9.71-1.1,2.18-1.73,4.67-1.73,7.31,0,8.63,6.65,15.63,14.85,15.63,2.04,0,3.98-.43,5.74-1.21-1.73,2.07-2.77,4.74-2.77,7.65,0,6.6,5.35,11.95,11.95,11.95,2.34,0,4.53-.69,6.37-1.85,3.35-2.12,5.58-5.84,5.58-10.09,0-6.6-5.35-11.95-11.95-11.95-1.14,0-2.25.17-3.3.47-.35.1-.68.22-1.02.34.25-.26.48-.54.71-.82,2.2-2.73,3.54-6.25,3.54-10.11,0-8.63-6.65-15.63-14.85-15.63-.04,0-.09,0-.13,0,.08-.46.13-.93.13-1.4,0-5.44-5.09-9.84-11.36-9.84-2.25,0-4.33.57-6.1,1.55-.09.05-.19.1-.28.15.03-.09.07-.18.1-.28.34-1.03.53-2.12.53-3.26,0-5.72-4.64-10.35-10.35-10.35-2.65,0-5.06,1-6.89,2.64-1.76-2.25-4.49-3.7-7.57-3.7-1.18,0-2.31.22-3.35.61-2.02-3.94-5.97-6.61-10.51-6.61-5.61,0-10.3,4.08-11.59,9.57-1.8-3.04-5.11-5.08-8.9-5.08-5.72,0-10.35,4.64-10.35,10.35,0,.22.02.44.03.66-1.74-1.07-3.78-1.7-5.97-1.7-5.31,0-9.76,3.64-11.03,8.56-.15.6-.27,1.21-.32,1.83-.54-.31-1.1-.58-1.69-.79-1.08-.39-2.24-.61-3.45-.61-5.63,0-10.19,4.56-10.19,10.19,0,.53.05,1.04.13,1.55.11.73.3,1.43.55,2.09-.23-.02-.45-.03-.68-.03-.41,0-.8.04-1.2.09-4.11.58-7.28,4.11-7.28,8.38,0,2.62,1.19,4.95,3.05,6.51-1.83.98-3.05,2.69-3.05,4.66,0,3.04,2.92,5.51,6.53,5.51,1.16,0,2.24-.26,3.19-.7,1.02.45,2.15.7,3.35.7,2.3,0,4.39-.93,5.9-2.44,0,.14-.02.27-.02.41,0,4.08,3.31,7.38,7.38,7.38,1.22,0,2.37-.3,3.38-.83,2.38-1.23,4-3.7,4-6.56Z"/>
      <path class="cls-13" d="M430.96,114.52c-2.18-1.93-5.04-3.11-8.18-3.11-6.83,0-12.36,5.53-12.36,12.36,0,1.75.37,3.42,1.03,4.93-2.51-1.78-5.58-2.84-8.89-2.84-8.51,0-15.41,6.9-15.41,15.41,0,2.87.8,5.55,2.17,7.85-3.35,1.46-5.7,4.8-5.7,8.69,0,.71.08,1.39.23,2.05-2.09-1.96-5-3.17-8.21-3.17-6.36,0-11.52,4.74-11.52,10.6,0,1.39.3,2.72.83,3.94,1.7,3.9,5.84,6.65,10.68,6.65,6.36,0,11.52-4.74,11.52-10.6,0-.73-.08-1.43-.23-2.12-.02-.08-.04-.16-.06-.23.06.05.11.11.17.16,1.64,1.37,3.76,2.2,6.06,2.2,5.23,0,9.47-4.24,9.47-9.47,0-.38-.03-.76-.07-1.13.02,0,.05,0,.07,0,5.42,0,10.18-2.81,12.93-7.04,5.32-.76,9.39-4.86,9.39-9.82,0-1.33-.3-2.6-.83-3.76,6.24-.63,11.1-5.9,11.1-12.3,0-3.69-1.62-6.99-4.18-9.25Z"/>
      <path class="cls-13" d="M417.97,94.88c0,6.47,4.6,11.72,10.27,11.72,1.59,0,3.09-.42,4.43-1.16,3.45-1.89,5.85-5.9,5.85-10.56,0-5.42-3.23-9.97-7.61-11.31-.85-.26-1.74-.41-2.67-.41-5.67,0-10.27,5.25-10.27,11.72Z"/>
    </g>
    <path class="cls-18" d="M302.43,242.26l-44.32,76.63s.29,16.94,8.46,22.8c8.02,5.75,32.64,16.05,57.36-5.14,24.72-21.19,4.13-12.2,4.13-12.2l-11.04,76.7,77.54,4.75s54.91-101.03,27.3-155.13c-11.42-22.37-32.5-39.82-41.77-45.43-8.24-4.98-6.85-.45-15.29,4.17l-29.22,19.02-20.15,15.81c-2.78,1.98-6.77,3.79-9.27,1.47l-3.72-3.45Z"/>
    <path class="cls-2" d="M341.16,141.28s-14.24-2.92-20.93,8.5c-7.36,12.57-.09,22.24,3.93,25.01,5.7,3.92,18.46,3.93,25.28-5.38,7.08-9.66,2.18-19.88-1.21-24.77"/>
    <ellipse class="cls-13" cx="253.52" cy="123.32" rx="1.12" ry="3.39" transform="translate(2.86 252.36) rotate(-53.18)"/>
    <path class="cls-5" d="M259.59,125.54l1.47-1.44c.73-.72.74-1.9,0-2.62l-1.64-1.63"/>
    <polyline class="cls-4" points="277.64 92.21 277.45 95.45 276.52 99.06"/>
    <path class="cls-7" d="M273.61,99.06s.24.99,3.3,1.49,8.06-.53,8.06-.53l3.05-.83"/>
    <path class="cls-3" d="M276.82,81.3s4.33-1.69,10.68-.92,11.84,7.75,11.84,7.75"/>
    <path class="cls-13" d="M250.65,131.61s0,0,.01,0l10.99,11.78c1.14.86.84,1.38-.4,2.09,0,0,0,0,0,0l-10.49,8.42s0,0-.01,0q-1.98.58-3.07-.32c-1.45-1.2-3.17-3.52-2.33-5.22,1.33-2.67,12.15-4.04,13.91-4.22.04,0,.33.1.29.09-1.33-.21-7.77-1.29-9.74-2.43-2.16-1.25-4.99-4.03-2.78-8.44,1.11-2.22,3.49-1.78,3.6-1.76Z"/>
    <line class="cls-1" x1="1.5" y1="353.11" x2="1.5" y2="311.93"/>
    <g>
      <line class="cls-1" x1="10.89" y1="360.33" x2="10.89" y2="258.09"/>
      <line class="cls-1" x1="21.42" y1="360.33" x2="21.42" y2="284.42"/>
      <line class="cls-1" x1="31.2" y1="360.33" x2="31.2" y2="227.11"/>
      <line class="cls-1" x1="41.73" y1="360.33" x2="41.73" y2="200.84"/>
      <line class="cls-1" x1="53.76" y1="360.33" x2="53.76" y2="258.09"/>
      <line class="cls-1" x1="68.05" y1="360.33" x2="71.14" y2="248.79"/>
      <line class="cls-1" x1="83.1" y1="360.33" x2="80.17" y2="215.07"/>
      <line class="cls-1" x1="95.51" y1="360.33" x2="95.51" y2="236.4"/>
      <line class="cls-1" x1="111.68" y1="360.33" x2="111.68" y2="203.87"/>
      <line class="cls-1" x1="124.46" y1="360.33" x2="124.46" y2="258.09"/>
      <line class="cls-1" x1="138" y1="360.33" x2="138" y2="241.82"/>
      <line class="cls-1" x1="157.56" y1="360.33" x2="157.56" y2="241.82"/>
      <line class="cls-1" x1="175.11" y1="360.33" x2="173.94" y2="288.21"/>
      <line class="cls-1" x1="187.4" y1="355.69" x2="182.1" y2="219.36"/>
      <line class="cls-1" x1="205.06" y1="360.33" x2="202.35" y2="233.3"/>
      <line class="cls-1" x1="219.98" y1="360.33" x2="216.22" y2="293.72"/>
      <line class="cls-1" x1="230.15" y1="360.33" x2="227.5" y2="215.07"/>
      <line class="cls-1" x1="240.29" y1="360.33" x2="240.29" y2="322.38"/>
      <line class="cls-1" x1="253.27" y1="360.33" x2="250.07" y2="227.11"/>
      <line class="cls-1" x1="266.78" y1="360.33" x2="266.78" y2="248.79"/>
      <line class="cls-1" x1="282.92" y1="360.33" x2="282.92" y2="277.45"/>
      <line class="cls-1" x1="299.34" y1="360.33" x2="299.34" y2="280.59"/>
    </g>
    <path class="cls-12" d="M141.65,168.4l46.39-9.29,8.19,26.31-10.6,35s-2.57,56.83,4.82,89.26-.32,56.83-11.24,62.93-37.89,5.14-37.57-23.44c.32-28.58,15.09-119.44,9.63-132.92-5.46-13.48-9.63-47.84-9.63-47.84Z"/>
    <path class="cls-13" d="M207.04,131.67c-7.13,0-13.17,4.7-15.18,11.18l-63.64,18.01.26,1.18-10.98,4.69c-1.06.45-1.66,1.59-1.44,2.72l.47,2.38c.22,1.09,1.25,1.81,2.35,1.63l11.65-1.9.25,1.18,66.41-12.71c2.71,2.14,6.13,3.43,9.85,3.43,8.78,0,15.89-7.12,15.89-15.89s-7.12-15.89-15.89-15.89Z"/>
    <path class="cls-3" d="M70.21,401.28s7.06-156.36,8.67-183.65c1.61-27.29,38.13-47.22,38.13-47.22"/>
    <path class="cls-12" d="M141.65,157.06s-1.6-9.2,1.93-10.48,7.49,2.97,8.03,5.24-1.93-8.32,1.61-8.87,5.61-1.46,7.71,3.31-3.85-4.19,0-5.3c3.85-1.12,7.38-.66,8.03,2s2.19,5.77,2.19,5.77l2.75-.78v-9.39s2.41-2.96,4.14-2.89c2.01.08,4.96.93,5.06,5.29.1,4.36,1.61,8.83,1.61,8.83l7.71,9.33s5.78,12.82,6.42,16.68-7.91,27.29-7.91,27.29l-17.45-3.21s-3.85-7.38-.32-15.09c3.53-7.71,10.27-14.37,10.27-14.37l-5.83-12.16c-.63-1.31-2.4-1.52-3.31-.39-.31.39-.69.81-1.14,1.26-3.21,3.19-8.35-4.79-8.35-4.79,0,0,.78,4.65-.82,7.53-1.61,2.89-6.88-3.09-8.49-5.01-1.61-1.93,1.32,3.1-.93,6.95s-12.88-6.74-12.88-6.74Z"/>
    <path class="cls-4" d="M177.56,158.25s5.68,8.82,3.99,14.13c-1.69,5.31-9.87,11.36-9.86,17.85,0,7.06.46,14.14.46,14.14"/>
    <path class="cls-6" d="M326.65,334.19s2.9-59.42,26.42-74.83"/>
  </g>
  <g id="guy">
    <path class="cls-16" d="M478.89,241.46s-8.04,15.08-14.46,15.08,9.33,24.09,21.85,24.73,17.02-12.2,17.98-13.81,10.27,8.03,16.7,6.74,5.46-7.71,5.46-7.71l4.17-1.93v-3.2l3.37-1.18.16-5.58s4.74.84,6.66-.44-2.89-13.48-.96-16.05,4.98-12.04,4.98-12.04l-11.64-21.23-48.8,19.91-5.46,16.7Z"/>
    <path class="cls-10" d="M496.17,217.94s20.07,4.49,27.77,7.55,21.83,1.12,21.83,1.12c0,0,2.89,1.28,9.15,2.41,6.26,1.12,8.67-1.44,11.08-6.26,1.52-3.05-22.31-10.27-22.31-10.27,0,0-4.01-23.44-21.19-27.77s-31.3-1.12-40.13,8.51-8.05,26.78-5.96,31.92"/>
    <g>
      <path class="cls-10" d="M488.94,208.69c-9.09,0-16.45,7.36-16.45,16.45,0-8.48,6.88-15.36,15.36-15.36s15.36,6.88,15.36,15.36-6.88,15.36-15.36,15.36-15.36-6.88-15.36-15.36c0,9.09,7.36,16.45,16.45,16.45s16.45-7.36,16.45-16.45-7.36-16.45-16.45-16.45Z"/>
      <path class="cls-14" d="M487.86,240.5c8.48,0,15.36-6.88,15.36-15.36s-6.88-15.36-15.36-15.36-15.36,6.88-15.36,15.36,6.88,15.36,15.36,15.36ZM486.96,214.59c5.83,0,10.55,4.72,10.55,10.55s-4.72,10.55-10.55,10.55-10.55-4.72-10.55-10.55,4.72-10.55,10.55-10.55Z"/>
      <circle class="cls-10" cx="486.96" cy="225.14" r="10.55" transform="translate(-16.57 410.27) rotate(-45)"/>
      <path class="cls-15" d="M484.38,214.59l5.71.47s12.18-31.92,27.83-30.27c5.64.59,2.65-2.15,2.65-2.15,0,0-2.73.15-7.55-.98s-27.37-1.75-28.65,32.93Z"/>
    </g>
    <path class="cls-11" d="M491.52,396.14s-89.58,17.34-92.79,7.06-6.17.11-8.41-45.81,29.49-85.85,29.49-85.85l44.62-15s11.05,26.9,25.65,23.77c8.99-1.93,11.7-8.12,11.7-8.12,0,0,26.67,5.14,28.92,18.95,2.25,13.81,11.24,56.51,11.24,56.51l-50.41,48.48Z"/>
    <path class="cls-9" d="M447.78,395.34v8.35h137.74s2.89-2.25,4.82-6.42c1.93-4.17,16.37-61.32,16.37-61.32,0,0,1.72-6.74-2.03-6.74h-93.97s-5.14,2.25-5.46,6.1-15.08,59.25-15.08,59.25l-42.39.79Z"/>
    <ellipse class="cls-17" cx="552.78" cy="366.65" rx="8.59" ry="7.48" transform="translate(44.97 793.41) rotate(-73.6)"/>
    <polyline class="cls-6" points="440.15 339.12 438.94 368.62 495.19 375.15"/>
    <path class="cls-5" d="M504.25,267.47s-9.64-5.07-9.8-9.51"/>
    <path class="cls-5" d="M530.58,261.38s-7.15.78-6.83-1.29"/>
    <path class="cls-5" d="M527.28,236.49s1.04,3.05,6.18,2.09"/>
    <path class="cls-5" d="M523.98,230.23s12.37-.48,13.34,1.28"/>
    <path class="cls-11" d="M228.83,447.61s31.93-95.83,117.69-94.76,105.17,96.87,105.17,96.87"/>
    <line class="cls-8" x1="403.84" y1="403.69" x2="624.94" y2="403.69"/>
  </g>
</svg>